  0
SECTION
  2
HEADER
  9
$ANGBASE
  50
0.0
  9
$ANGDIR
  70
  1
  9
$MEASUREMENT
  70
0
  0
ENDSEC
  0
SECTION
  2
TABLES
  0
TABLE
  2
LTYPE
  70
4
  0
LTYPE
  5
40F
  2
CONTINUOUS
  70
0
  3
Solid line
  72
65
  73
0
  40
0.0
  0
LTYPE
  5
410
  2
DASHDOT
 70
0
  3
Dash Dot ____ _ ____ _
 72
65
 73
4
 40
2.0
 49
1.25
 49
-0.25
 49
0.25
 49
-0.25
  0
LTYPE
  5
411
  2
DASHED
 70
0
  3
Dashed __ __ __ __ __
 72
65
 73
2
 40
0.75
 49
0.5
 49
-0.25
  0
LTYPE
  5
43B
  2
DOTTED
 70
0
  3
Dotted .  .  .  .
 72
65
 73
2
 40
0.2
 49
0.0
 49
-0.2
  0
ENDTAB
  0
TABLE
  2
STYLE
  70
4
  0
STYLE
  2
KICAD
  70
0
  40
0
  41
1
  42
1
  50
0
  71
0
  3
isocp.shx
  0
STYLE
  2
KICADB
  70
0
  40
0
  41
1
  42
1
  50
0
  71
0
  3
isocp.shx
  0
STYLE
  2
KICADI
  70
0
  40
0
  41
1
  42
1
  50
15
  71
0
  3
isocp.shx
  0
STYLE
  2
KICADBI
  70
0
  40
0
  41
1
  42
1
  50
15
  71
0
  3
isocp.shx
  0
ENDTAB
  0
TABLE
  2
LAYER
  70
30
  0
LAYER
  2
BLACK
  70
0
  62
7
  6
CONTINUOUS
  0
LAYER
  2
GRAY1
  70
0
  62
251
  6
CONTINUOUS
  0
LAYER
  2
GRAY2
  70
0
  62
8
  6
CONTINUOUS
  0
LAYER
  2
GRAY3
  70
0
  62
9
  6
CONTINUOUS
  0
LAYER
  2
WHITE
  70
0
  62
7
  6
CONTINUOUS
  0
LAYER
  2
LYELLOW
  70
0
  62
51
  6
CONTINUOUS
  0
LAYER
  2
BLUE1
  70
0
  62
178
  6
CONTINUOUS
  0
LAYER
  2
GREEN1
  70
0
  62
98
  6
CONTINUOUS
  0
LAYER
  2
CYAN1
  70
0
  62
138
  6
CONTINUOUS
  0
LAYER
  2
RED1
  70
0
  62
18
  6
CONTINUOUS
  0
LAYER
  2
MAGENTA1
  70
0
  62
228
  6
CONTINUOUS
  0
LAYER
  2
BROWN1
  70
0
  62
58
  6
CONTINUOUS
  0
LAYER
  2
BLUE2
  70
0
  62
5
  6
CONTINUOUS
  0
LAYER
  2
GREEN2
  70
0
  62
3
  6
CONTINUOUS
  0
LAYER
  2
CYAN2
  70
0
  62
4
  6
CONTINUOUS
  0
LAYER
  2
RED2
  70
0
  62
1
  6
CONTINUOUS
  0
LAYER
  2
MAGENTA2
  70
0
  62
6
  6
CONTINUOUS
  0
LAYER
  2
BROWN2
  70
0
  62
54
  6
CONTINUOUS
  0
LAYER
  2
BLUE3
  70
0
  62
171
  6
CONTINUOUS
  0
LAYER
  2
GREEN3
  70
0
  62
91
  6
CONTINUOUS
  0
LAYER
  2
CYAN3
  70
0
  62
131
  6
CONTINUOUS
  0
LAYER
  2
RED3
  70
0
  62
11
  6
CONTINUOUS
  0
LAYER
  2
MAGENTA3
  70
0
  62
221
  6
CONTINUOUS
  0
LAYER
  2
YELLOW3
  70
0
  62
2
  6
CONTINUOUS
  0
LAYER
  2
BLUE4
  70
0
  62
5
  6
CONTINUOUS
  0
LAYER
  2
GREEN4
  70
0
  62
3
  6
CONTINUOUS
  0
LAYER
  2
CYAN4
  70
0
  62
4
  6
CONTINUOUS
  0
LAYER
  2
RED4
  70
0
  62
1
  6
CONTINUOUS
  0
LAYER
  2
MAGENTA4
  70
0
  62
6
  6
CONTINUOUS
  0
LAYER
  2
YELLOW4
  70
0
  62
2
  6
CONTINUOUS
  0
ENDTAB
  0
ENDSEC
  0
SECTION
  2
ENTITIES
0
LINE
8
BLACK
6
CONTINUOUS
10
153.035
20
-100.463
11
153.06
21
-100.465
0
LINE
8
BLACK
6
CONTINUOUS
10
153.06
20
-100.465
11
153.06
21
-100.465
0
LINE
8
BLACK
6
CONTINUOUS
10
153.06
20
-100.465
11
153.133
21
-100.472
0
LINE
8
BLACK
6
CONTINUOUS
10
153.133
20
-100.472
11
153.227
21
-100.501
0
LINE
8
BLACK
6
CONTINUOUS
10
153.227
20
-100.501
11
153.314
21
-100.547
0
LINE
8
BLACK
6
CONTINUOUS
10
153.314
20
-100.547
11
153.39
21
-100.61
0
LINE
8
BLACK
6
CONTINUOUS
10
153.39
20
-100.61
11
153.453
21
-100.686
0
LINE
8
BLACK
6
CONTINUOUS
10
153.453
20
-100.686
11
153.499
21
-100.773
0
LINE
8
BLACK
6
CONTINUOUS
10
153.499
20
-100.773
11
153.528
21
-100.867
0
LINE
8
BLACK
6
CONTINUOUS
10
153.528
20
-100.867
11
153.537
21
-100.965
0
LINE
8
BLACK
6
CONTINUOUS
10
153.537
20
-100.965
11
153.528
21
-101.063
0
LINE
8
BLACK
6
CONTINUOUS
10
153.528
20
-101.063
11
153.5
21
-101.155
0
LINE
8
BLACK
6
CONTINUOUS
10
153.5
20
-101.155
11
153.5
21
-102.845
0
LINE
8
BLACK
6
CONTINUOUS
10
153.5
20
-102.845
11
153.502
21
-102.87
0
LINE
8
BLACK
6
CONTINUOUS
10
153.502
20
-102.87
11
153.5
21
-102.895
0
LINE
8
BLACK
6
CONTINUOUS
10
153.5
20
-102.895
11
153.5
21
-114.945
0
LINE
8
BLACK
6
CONTINUOUS
10
153.5
20
-114.945
11
153.502
21
-114.97
0
LINE
8
BLACK
6
CONTINUOUS
10
153.502
20
-114.97
11
153.5
21
-114.995
0
LINE
8
BLACK
6
CONTINUOUS
10
153.5
20
-114.995
11
153.5
21
-115.545
0
LINE
8
BLACK
6
CONTINUOUS
10
153.5
20
-115.545
11
153.502
21
-115.57
0
LINE
8
BLACK
6
CONTINUOUS
10
153.502
20
-115.57
11
153.5
21
-115.595
0
LINE
8
BLACK
6
CONTINUOUS
10
153.5
20
-115.595
11
153.5
21
-115.975
0
LINE
8
BLACK
6
CONTINUOUS
10
153.5
20
-115.975
11
153.502
21
-116
0
LINE
8
BLACK
6
CONTINUOUS
10
153.502
20
-116
11
153.493
21
-116.098
0
LINE
8
BLACK
6
CONTINUOUS
10
153.493
20
-116.098
11
153.464
21
-116.192
0
LINE
8
BLACK
6
CONTINUOUS
10
153.464
20
-116.192
11
153.418
21
-116.279
0
LINE
8
BLACK
6
CONTINUOUS
10
153.418
20
-116.279
11
153.355
21
-116.355
0
LINE
8
BLACK
6
CONTINUOUS
10
153.355
20
-116.355
11
153.279
21
-116.418
0
LINE
8
BLACK
6
CONTINUOUS
10
153.279
20
-116.418
11
153.192
21
-116.464
0
LINE
8
BLACK
6
CONTINUOUS
10
153.192
20
-116.464
11
153.098
21
-116.493
0
LINE
8
BLACK
6
CONTINUOUS
10
153.098
20
-116.493
11
153.025
21
-116.5
0
LINE
8
BLACK
6
CONTINUOUS
10
153.025
20
-116.5
11
153
21
-116.502
0
LINE
8
BLACK
6
CONTINUOUS
10
153
20
-116.502
11
152.975
21
-116.5
0
LINE
8
BLACK
6
CONTINUOUS
10
152.975
20
-116.5
11
152.22
21
-116.5
0
LINE
8
BLACK
6
CONTINUOUS
10
152.22
20
-116.5
11
152.195
21
-116.502
0
LINE
8
BLACK
6
CONTINUOUS
10
152.195
20
-116.502
11
152.195
21
-116.502
0
LINE
8
BLACK
6
CONTINUOUS
10
152.195
20
-116.502
11
152.17
21
-116.5
0
LINE
8
BLACK
6
CONTINUOUS
10
152.17
20
-116.5
11
145.01
21
-116.5
0
LINE
8
BLACK
6
CONTINUOUS
10
145.01
20
-116.5
11
144.985
21
-116.502
0
LINE
8
BLACK
6
CONTINUOUS
10
144.985
20
-116.502
11
144.96
21
-116.5
0
LINE
8
BLACK
6
CONTINUOUS
10
144.96
20
-116.5
11
144.17
21
-116.5
0
LINE
8
BLACK
6
CONTINUOUS
10
144.17
20
-116.5
11
144.145
21
-116.502
0
LINE
8
BLACK
6
CONTINUOUS
10
144.145
20
-116.502
11
144.12
21
-116.5
0
LINE
8
BLACK
6
CONTINUOUS
10
144.12
20
-116.5
11
143.975
21
-116.5
0
LINE
8
BLACK
6
CONTINUOUS
10
143.975
20
-116.5
11
143.902
21
-116.493
0
LINE
8
BLACK
6
CONTINUOUS
10
143.902
20
-116.493
11
143.808
21
-116.464
0
LINE
8
BLACK
6
CONTINUOUS
10
143.808
20
-116.464
11
143.721
21
-116.418
0
LINE
8
BLACK
6
CONTINUOUS
10
143.721
20
-116.418
11
143.645
21
-116.355
0
LINE
8
BLACK
6
CONTINUOUS
10
143.645
20
-116.355
11
143.582
21
-116.279
0
LINE
8
BLACK
6
CONTINUOUS
10
143.582
20
-116.279
11
143.536
21
-116.192
0
LINE
8
BLACK
6
CONTINUOUS
10
143.536
20
-116.192
11
143.507
21
-116.098
0
LINE
8
BLACK
6
CONTINUOUS
10
143.507
20
-116.098
11
143.498
21
-116
0
LINE
8
BLACK
6
CONTINUOUS
10
143.498
20
-116
11
143.507
21
-115.902
0
LINE
8
BLACK
6
CONTINUOUS
10
143.507
20
-115.902
11
143.536
21
-115.808
0
LINE
8
BLACK
6
CONTINUOUS
10
143.536
20
-115.808
11
143.582
21
-115.721
0
LINE
8
BLACK
6
CONTINUOUS
10
143.582
20
-115.721
11
143.645
21
-115.645
0
LINE
8
BLACK
6
CONTINUOUS
10
143.645
20
-115.645
11
143.645
21
-115.645
0
LINE
8
BLACK
6
CONTINUOUS
10
143.645
20
-115.645
11
143.645
21
-115.595
0
LINE
8
BLACK
6
CONTINUOUS
10
143.645
20
-115.595
11
143.643
21
-115.57
0
LINE
8
BLACK
6
CONTINUOUS
10
143.643
20
-115.57
11
143.645
21
-115.545
0
LINE
8
BLACK
6
CONTINUOUS
10
143.645
20
-115.545
11
143.645
21
-114.96
0
LINE
8
BLACK
6
CONTINUOUS
10
143.645
20
-114.96
11
143.645
21
-114.96
0
LINE
8
BLACK
6
CONTINUOUS
10
143.645
20
-114.96
11
143.643
21
-114.935
0
LINE
8
BLACK
6
CONTINUOUS
10
143.643
20
-114.935
11
143.645
21
-114.91
0
LINE
8
BLACK
6
CONTINUOUS
10
143.645
20
-114.91
11
143.645
21
-100.99
0
LINE
8
BLACK
6
CONTINUOUS
10
143.645
20
-100.99
11
143.643
21
-100.965
0
LINE
8
BLACK
6
CONTINUOUS
10
143.643
20
-100.965
11
143.652
21
-100.867
0
LINE
8
BLACK
6
CONTINUOUS
10
143.652
20
-100.867
11
143.681
21
-100.773
0
LINE
8
BLACK
6
CONTINUOUS
10
143.681
20
-100.773
11
143.727
21
-100.686
0
LINE
8
BLACK
6
CONTINUOUS
10
143.727
20
-100.686
11
143.79
21
-100.61
0
LINE
8
BLACK
6
CONTINUOUS
10
143.79
20
-100.61
11
143.866
21
-100.547
0
LINE
8
BLACK
6
CONTINUOUS
10
143.866
20
-100.547
11
143.953
21
-100.501
0
LINE
8
BLACK
6
CONTINUOUS
10
143.953
20
-100.501
11
144.047
21
-100.472
0
LINE
8
BLACK
6
CONTINUOUS
10
144.047
20
-100.472
11
144.12
21
-100.465
0
LINE
8
BLACK
6
CONTINUOUS
10
144.12
20
-100.465
11
144.145
21
-100.463
0
LINE
8
BLACK
6
CONTINUOUS
10
144.145
20
-100.463
11
144.17
21
-100.465
0
LINE
8
BLACK
6
CONTINUOUS
10
144.17
20
-100.465
11
144.755
21
-100.465
0
LINE
8
BLACK
6
CONTINUOUS
10
144.755
20
-100.465
11
144.78
21
-100.463
0
LINE
8
BLACK
6
CONTINUOUS
10
144.78
20
-100.463
11
144.805
21
-100.465
0
LINE
8
BLACK
6
CONTINUOUS
10
144.805
20
-100.465
11
145.39
21
-100.465
0
LINE
8
BLACK
6
CONTINUOUS
10
145.39
20
-100.465
11
145.415
21
-100.463
0
LINE
8
BLACK
6
CONTINUOUS
10
145.415
20
-100.463
11
145.44
21
-100.465
0
LINE
8
BLACK
6
CONTINUOUS
10
145.44
20
-100.465
11
151.74
21
-100.465
0
LINE
8
BLACK
6
CONTINUOUS
10
151.74
20
-100.465
11
151.765
21
-100.463
0
LINE
8
BLACK
6
CONTINUOUS
10
151.765
20
-100.463
11
151.79
21
-100.465
0
LINE
8
BLACK
6
CONTINUOUS
10
151.79
20
-100.465
11
153.01
21
-100.465
0
LINE
8
BLACK
6
CONTINUOUS
10
153.01
20
-100.465
11
153.035
21
-100.463
0
LINE
8
BLACK
6
CONTINUOUS
10
144.78
20
-103.372
11
144.682
21
-103.363
0
LINE
8
BLACK
6
CONTINUOUS
10
144.682
20
-103.363
11
144.645
21
-103.352
0
LINE
8
BLACK
6
CONTINUOUS
10
144.645
20
-103.352
11
144.645
21
-114.728
0
LINE
8
BLACK
6
CONTINUOUS
10
144.645
20
-114.728
11
144.987
21
-115.07
0
LINE
8
BLACK
6
CONTINUOUS
10
144.987
20
-115.07
11
145.39
21
-115.07
0
LINE
8
BLACK
6
CONTINUOUS
10
145.39
20
-115.07
11
145.415
21
-115.068
0
LINE
8
BLACK
6
CONTINUOUS
10
145.415
20
-115.068
11
145.44
21
-115.07
0
LINE
8
BLACK
6
CONTINUOUS
10
145.44
20
-115.07
11
151.74
21
-115.07
0
LINE
8
BLACK
6
CONTINUOUS
10
151.74
20
-115.07
11
151.765
21
-115.068
0
LINE
8
BLACK
6
CONTINUOUS
10
151.765
20
-115.068
11
151.79
21
-115.07
0
LINE
8
BLACK
6
CONTINUOUS
10
151.79
20
-115.07
11
152.193
21
-115.07
0
LINE
8
BLACK
6
CONTINUOUS
10
152.193
20
-115.07
11
152.5
21
-114.763
0
LINE
8
BLACK
6
CONTINUOUS
10
152.5
20
-114.763
11
152.5
21
-103.37
0
LINE
8
BLACK
6
CONTINUOUS
10
152.5
20
-103.37
11
151.79
21
-103.37
0
LINE
8
BLACK
6
CONTINUOUS
10
151.79
20
-103.37
11
151.765
21
-103.372
0
LINE
8
BLACK
6
CONTINUOUS
10
151.765
20
-103.372
11
151.74
21
-103.37
0
LINE
8
BLACK
6
CONTINUOUS
10
151.74
20
-103.37
11
151.155
21
-103.37
0
LINE
8
BLACK
6
CONTINUOUS
10
151.155
20
-103.37
11
151.13
21
-103.372
0
LINE
8
BLACK
6
CONTINUOUS
10
151.13
20
-103.372
11
151.032
21
-103.363
0
LINE
8
BLACK
6
CONTINUOUS
10
151.032
20
-103.363
11
150.938
21
-103.334
0
LINE
8
BLACK
6
CONTINUOUS
10
150.938
20
-103.334
11
150.851
21
-103.288
0
LINE
8
BLACK
6
CONTINUOUS
10
150.851
20
-103.288
11
150.775
21
-103.225
0
LINE
8
BLACK
6
CONTINUOUS
10
150.775
20
-103.225
11
150.712
21
-103.149
0
LINE
8
BLACK
6
CONTINUOUS
10
150.712
20
-103.149
11
150.712
21
-103.149
0
LINE
8
BLACK
6
CONTINUOUS
10
150.712
20
-103.149
11
150.666
21
-103.062
0
LINE
8
BLACK
6
CONTINUOUS
10
150.666
20
-103.062
11
150.637
21
-102.968
0
LINE
8
BLACK
6
CONTINUOUS
10
150.637
20
-102.968
11
150.628
21
-102.87
0
LINE
8
BLACK
6
CONTINUOUS
10
150.628
20
-102.87
11
150.63
21
-102.845
0
LINE
8
BLACK
6
CONTINUOUS
10
150.63
20
-102.845
11
150.63
21
-102.735
0
LINE
8
BLACK
6
CONTINUOUS
10
150.63
20
-102.735
11
149.09
21
-102.735
0
LINE
8
BLACK
6
CONTINUOUS
10
149.09
20
-102.735
11
149.09
21
-102.95
0
LINE
8
BLACK
6
CONTINUOUS
10
149.09
20
-102.95
11
149.24
21
-102.95
0
LINE
8
BLACK
6
CONTINUOUS
10
149.24
20
-102.95
11
149.24
21
-106.25
0
LINE
8
BLACK
6
CONTINUOUS
10
149.24
20
-106.25
11
147.94
21
-106.25
0
LINE
8
BLACK
6
CONTINUOUS
10
147.94
20
-106.25
11
147.94
21
-102.95
0
LINE
8
BLACK
6
CONTINUOUS
10
147.94
20
-102.95
11
148.09
21
-102.95
0
LINE
8
BLACK
6
CONTINUOUS
10
148.09
20
-102.95
11
148.09
21
-102.735
0
LINE
8
BLACK
6
CONTINUOUS
10
148.09
20
-102.735
11
146.55
21
-102.735
0
LINE
8
BLACK
6
CONTINUOUS
10
146.55
20
-102.735
11
146.55
21
-102.845
0
LINE
8
BLACK
6
CONTINUOUS
10
146.55
20
-102.845
11
146.552
21
-102.87
0
LINE
8
BLACK
6
CONTINUOUS
10
146.552
20
-102.87
11
146.543
21
-102.968
0
LINE
8
BLACK
6
CONTINUOUS
10
146.543
20
-102.968
11
146.514
21
-103.062
0
LINE
8
BLACK
6
CONTINUOUS
10
146.514
20
-103.062
11
146.468
21
-103.149
0
LINE
8
BLACK
6
CONTINUOUS
10
146.468
20
-103.149
11
146.405
21
-103.225
0
LINE
8
BLACK
6
CONTINUOUS
10
146.405
20
-103.225
11
146.329
21
-103.288
0
LINE
8
BLACK
6
CONTINUOUS
10
146.329
20
-103.288
11
146.242
21
-103.334
0
LINE
8
BLACK
6
CONTINUOUS
10
146.242
20
-103.334
11
146.148
21
-103.363
0
LINE
8
BLACK
6
CONTINUOUS
10
146.148
20
-103.363
11
146.075
21
-103.37
0
LINE
8
BLACK
6
CONTINUOUS
10
146.075
20
-103.37
11
146.05
21
-103.372
0
LINE
8
BLACK
6
CONTINUOUS
10
146.05
20
-103.372
11
146.025
21
-103.37
0
LINE
8
BLACK
6
CONTINUOUS
10
146.025
20
-103.37
11
145.44
21
-103.37
0
LINE
8
BLACK
6
CONTINUOUS
10
145.44
20
-103.37
11
145.415
21
-103.372
0
LINE
8
BLACK
6
CONTINUOUS
10
145.415
20
-103.372
11
145.39
21
-103.37
0
LINE
8
BLACK
6
CONTINUOUS
10
145.39
20
-103.37
11
144.805
21
-103.37
0
LINE
8
BLACK
6
CONTINUOUS
10
144.805
20
-103.37
11
144.78
21
-103.372
0
LINE
8
BLACK
6
CONTINUOUS
10
150.24
20
-104.1
11
150.295
21
-104.1
0
LINE
8
BLACK
6
CONTINUOUS
10
150.295
20
-104.1
11
150.32
21
-104.098
0
LINE
8
BLACK
6
CONTINUOUS
10
150.32
20
-104.098
11
150.345
21
-104.1
0
LINE
8
BLACK
6
CONTINUOUS
10
150.345
20
-104.1
11
150.418
21
-104.107
0
LINE
8
BLACK
6
CONTINUOUS
10
150.418
20
-104.107
11
150.512
21
-104.136
0
LINE
8
BLACK
6
CONTINUOUS
10
150.512
20
-104.136
11
150.599
21
-104.182
0
LINE
8
BLACK
6
CONTINUOUS
10
150.599
20
-104.182
11
150.675
21
-104.245
0
LINE
8
BLACK
6
CONTINUOUS
10
150.675
20
-104.245
11
150.691
21
-104.264
0
LINE
8
BLACK
6
CONTINUOUS
10
150.691
20
-104.264
11
152.101
21
-105.674
0
LINE
8
BLACK
6
CONTINUOUS
10
152.101
20
-105.674
11
152.12
21
-105.69
0
LINE
8
BLACK
6
CONTINUOUS
10
152.12
20
-105.69
11
152.183
21
-105.766
0
LINE
8
BLACK
6
CONTINUOUS
10
152.183
20
-105.766
11
152.229
21
-105.853
0
LINE
8
BLACK
6
CONTINUOUS
10
152.229
20
-105.853
11
152.258
21
-105.947
0
LINE
8
BLACK
6
CONTINUOUS
10
152.258
20
-105.947
11
152.267
21
-106.045
0
LINE
8
BLACK
6
CONTINUOUS
10
152.267
20
-106.045
11
152.265
21
-106.07
0
LINE
8
BLACK
6
CONTINUOUS
10
152.265
20
-106.07
11
152.265
21
-109.195
0
LINE
8
BLACK
6
CONTINUOUS
10
152.265
20
-109.195
11
152.267
21
-109.22
0
LINE
8
BLACK
6
CONTINUOUS
10
152.267
20
-109.22
11
152.265
21
-109.245
0
LINE
8
BLACK
6
CONTINUOUS
10
152.265
20
-109.245
11
152.265
21
-109.245
0
LINE
8
BLACK
6
CONTINUOUS
10
152.265
20
-109.245
11
152.258
21
-109.318
0
LINE
8
BLACK
6
CONTINUOUS
10
152.258
20
-109.318
11
152.229
21
-109.412
0
LINE
8
BLACK
6
CONTINUOUS
10
152.229
20
-109.412
11
152.183
21
-109.499
0
LINE
8
BLACK
6
CONTINUOUS
10
152.183
20
-109.499
11
152.12
21
-109.575
0
LINE
8
BLACK
6
CONTINUOUS
10
152.12
20
-109.575
11
152.101
21
-109.591
0
LINE
8
BLACK
6
CONTINUOUS
10
152.101
20
-109.591
11
150.887
21
-110.805
0
LINE
8
BLACK
6
CONTINUOUS
10
150.887
20
-110.805
11
150.887
21
-111.39
0
LINE
8
BLACK
6
CONTINUOUS
10
150.887
20
-111.39
11
150.4
21
-111.39
0
LINE
8
BLACK
6
CONTINUOUS
10
150.4
20
-111.39
11
150.4
21
-112.65
0
LINE
8
BLACK
6
CONTINUOUS
10
150.4
20
-112.65
11
150.75
21
-112.65
0
LINE
8
BLACK
6
CONTINUOUS
10
150.75
20
-112.65
11
150.75
21
-114.35
0
LINE
8
BLACK
6
CONTINUOUS
10
150.75
20
-114.35
11
149.05
21
-114.35
0
LINE
8
BLACK
6
CONTINUOUS
10
149.05
20
-114.35
11
149.05
21
-112.65
0
LINE
8
BLACK
6
CONTINUOUS
10
149.05
20
-112.65
11
149.4
21
-112.65
0
LINE
8
BLACK
6
CONTINUOUS
10
149.4
20
-112.65
11
149.4
21
-111.39
0
LINE
8
BLACK
6
CONTINUOUS
10
149.4
20
-111.39
11
149.087
21
-111.39
0
LINE
8
BLACK
6
CONTINUOUS
10
149.087
20
-111.39
11
149.087
21
-109.59
0
LINE
8
BLACK
6
CONTINUOUS
10
149.087
20
-109.59
11
150.688
21
-109.59
0
LINE
8
BLACK
6
CONTINUOUS
10
150.688
20
-109.59
11
151.265
21
-109.013
0
LINE
8
BLACK
6
CONTINUOUS
10
151.265
20
-109.013
11
151.265
21
-106.252
0
LINE
8
BLACK
6
CONTINUOUS
10
151.265
20
-106.252
11
150.24
21
-105.227
0
LINE
8
BLACK
6
CONTINUOUS
10
150.24
20
-105.227
11
150.24
21
-106.25
0
LINE
8
BLACK
6
CONTINUOUS
10
150.24
20
-106.25
11
149.74
21
-106.25
0
LINE
8
BLACK
6
CONTINUOUS
10
149.74
20
-106.25
11
149.74
21
-105.033
0
LINE
8
BLACK
6
CONTINUOUS
10
149.74
20
-105.033
11
149.711
21
-105.018
0
LINE
8
BLACK
6
CONTINUOUS
10
149.711
20
-105.018
11
149.635
21
-104.955
0
LINE
8
BLACK
6
CONTINUOUS
10
149.635
20
-104.955
11
149.572
21
-104.879
0
LINE
8
BLACK
6
CONTINUOUS
10
149.572
20
-104.879
11
149.526
21
-104.792
0
LINE
8
BLACK
6
CONTINUOUS
10
149.526
20
-104.792
11
149.497
21
-104.698
0
LINE
8
BLACK
6
CONTINUOUS
10
149.497
20
-104.698
11
149.488
21
-104.6
0
LINE
8
BLACK
6
CONTINUOUS
10
149.488
20
-104.6
11
149.497
21
-104.502
0
LINE
8
BLACK
6
CONTINUOUS
10
149.497
20
-104.502
11
149.526
21
-104.408
0
LINE
8
BLACK
6
CONTINUOUS
10
149.526
20
-104.408
11
149.572
21
-104.321
0
LINE
8
BLACK
6
CONTINUOUS
10
149.572
20
-104.321
11
149.635
21
-104.245
0
LINE
8
BLACK
6
CONTINUOUS
10
149.635
20
-104.245
11
149.711
21
-104.182
0
LINE
8
BLACK
6
CONTINUOUS
10
149.711
20
-104.182
11
149.74
21
-104.167
0
LINE
8
BLACK
6
CONTINUOUS
10
149.74
20
-104.167
11
149.74
21
-102.95
0
LINE
8
BLACK
6
CONTINUOUS
10
149.74
20
-102.95
11
150.24
21
-102.95
0
LINE
8
BLACK
6
CONTINUOUS
10
150.24
20
-102.95
11
150.24
21
-104.1
0
LINE
8
BLACK
6
CONTINUOUS
10
147.44
20
-104.167
11
147.469
21
-104.182
0
LINE
8
BLACK
6
CONTINUOUS
10
147.469
20
-104.182
11
147.545
21
-104.245
0
LINE
8
BLACK
6
CONTINUOUS
10
147.545
20
-104.245
11
147.608
21
-104.321
0
LINE
8
BLACK
6
CONTINUOUS
10
147.608
20
-104.321
11
147.654
21
-104.408
0
LINE
8
BLACK
6
CONTINUOUS
10
147.654
20
-104.408
11
147.683
21
-104.502
0
LINE
8
BLACK
6
CONTINUOUS
10
147.683
20
-104.502
11
147.692
21
-104.6
0
LINE
8
BLACK
6
CONTINUOUS
10
147.692
20
-104.6
11
147.683
21
-104.698
0
LINE
8
BLACK
6
CONTINUOUS
10
147.683
20
-104.698
11
147.654
21
-104.792
0
LINE
8
BLACK
6
CONTINUOUS
10
147.654
20
-104.792
11
147.608
21
-104.879
0
LINE
8
BLACK
6
CONTINUOUS
10
147.608
20
-104.879
11
147.545
21
-104.955
0
LINE
8
BLACK
6
CONTINUOUS
10
147.545
20
-104.955
11
147.469
21
-105.018
0
LINE
8
BLACK
6
CONTINUOUS
10
147.469
20
-105.018
11
147.44
21
-105.033
0
LINE
8
BLACK
6
CONTINUOUS
10
147.44
20
-105.033
11
147.44
21
-106.25
0
LINE
8
BLACK
6
CONTINUOUS
10
147.44
20
-106.25
11
146.94
21
-106.25
0
LINE
8
BLACK
6
CONTINUOUS
10
146.94
20
-106.25
11
146.94
21
-105.227
0
LINE
8
BLACK
6
CONTINUOUS
10
146.94
20
-105.227
11
145.915
21
-106.252
0
LINE
8
BLACK
6
CONTINUOUS
10
145.915
20
-106.252
11
145.915
21
-109.013
0
LINE
8
BLACK
6
CONTINUOUS
10
145.915
20
-109.013
11
146.592
21
-109.69
0
LINE
8
BLACK
6
CONTINUOUS
10
146.592
20
-109.69
11
148.12
21
-109.69
0
LINE
8
BLACK
6
CONTINUOUS
10
148.12
20
-109.69
11
148.12
21
-111.29
0
LINE
8
BLACK
6
CONTINUOUS
10
148.12
20
-111.29
11
147.86
21
-111.29
0
LINE
8
BLACK
6
CONTINUOUS
10
147.86
20
-111.29
11
147.86
21
-112.811
0
LINE
8
BLACK
6
CONTINUOUS
10
147.86
20
-112.811
11
147.964
21
-112.896
0
LINE
8
BLACK
6
CONTINUOUS
10
147.964
20
-112.896
11
148.07
21
-113.025
0
LINE
8
BLACK
6
CONTINUOUS
10
148.07
20
-113.025
11
148.149
21
-113.173
0
LINE
8
BLACK
6
CONTINUOUS
10
148.149
20
-113.173
11
148.198
21
-113.333
0
LINE
8
BLACK
6
CONTINUOUS
10
148.198
20
-113.333
11
148.214
21
-113.5
0
LINE
8
BLACK
6
CONTINUOUS
10
148.214
20
-113.5
11
148.198
21
-113.667
0
LINE
8
BLACK
6
CONTINUOUS
10
148.198
20
-113.667
11
148.149
21
-113.827
0
LINE
8
BLACK
6
CONTINUOUS
10
148.149
20
-113.827
11
148.07
21
-113.975
0
LINE
8
BLACK
6
CONTINUOUS
10
148.07
20
-113.975
11
147.964
21
-114.104
0
LINE
8
BLACK
6
CONTINUOUS
10
147.964
20
-114.104
11
147.835
21
-114.21
0
LINE
8
BLACK
6
CONTINUOUS
10
147.835
20
-114.21
11
147.687
21
-114.289
0
LINE
8
BLACK
6
CONTINUOUS
10
147.687
20
-114.289
11
147.527
21
-114.338
0
LINE
8
BLACK
6
CONTINUOUS
10
147.527
20
-114.338
11
147.402
21
-114.35
0
LINE
8
BLACK
6
CONTINUOUS
10
147.402
20
-114.35
11
147.318
21
-114.35
0
LINE
8
BLACK
6
CONTINUOUS
10
147.318
20
-114.35
11
147.193
21
-114.338
0
LINE
8
BLACK
6
CONTINUOUS
10
147.193
20
-114.338
11
147.033
21
-114.289
0
LINE
8
BLACK
6
CONTINUOUS
10
147.033
20
-114.289
11
146.885
21
-114.21
0
LINE
8
BLACK
6
CONTINUOUS
10
146.885
20
-114.21
11
146.756
21
-114.104
0
LINE
8
BLACK
6
CONTINUOUS
10
146.756
20
-114.104
11
146.65
21
-113.975
0
LINE
8
BLACK
6
CONTINUOUS
10
146.65
20
-113.975
11
146.571
21
-113.827
0
LINE
8
BLACK
6
CONTINUOUS
10
146.571
20
-113.827
11
146.522
21
-113.667
0
LINE
8
BLACK
6
CONTINUOUS
10
146.522
20
-113.667
11
146.506
21
-113.5
0
LINE
8
BLACK
6
CONTINUOUS
10
146.506
20
-113.5
11
146.522
21
-113.333
0
LINE
8
BLACK
6
CONTINUOUS
10
146.522
20
-113.333
11
146.571
21
-113.173
0
LINE
8
BLACK
6
CONTINUOUS
10
146.571
20
-113.173
11
146.65
21
-113.025
0
LINE
8
BLACK
6
CONTINUOUS
10
146.65
20
-113.025
11
146.756
21
-112.896
0
LINE
8
BLACK
6
CONTINUOUS
10
146.756
20
-112.896
11
146.86
21
-112.811
0
LINE
8
BLACK
6
CONTINUOUS
10
146.86
20
-112.811
11
146.86
21
-111.29
0
LINE
8
BLACK
6
CONTINUOUS
10
146.86
20
-111.29
11
146.52
21
-111.29
0
LINE
8
BLACK
6
CONTINUOUS
10
146.52
20
-111.29
11
146.52
21
-110.962
0
LINE
8
BLACK
6
CONTINUOUS
10
146.52
20
-110.962
11
146.493
21
-110.954
0
LINE
8
BLACK
6
CONTINUOUS
10
146.493
20
-110.954
11
146.406
21
-110.908
0
LINE
8
BLACK
6
CONTINUOUS
10
146.406
20
-110.908
11
146.33
21
-110.845
0
LINE
8
BLACK
6
CONTINUOUS
10
146.33
20
-110.845
11
146.314
21
-110.826
0
LINE
8
BLACK
6
CONTINUOUS
10
146.314
20
-110.826
11
145.079
21
-109.591
0
LINE
8
BLACK
6
CONTINUOUS
10
145.079
20
-109.591
11
145.06
21
-109.575
0
LINE
8
BLACK
6
CONTINUOUS
10
145.06
20
-109.575
11
144.997
21
-109.499
0
LINE
8
BLACK
6
CONTINUOUS
10
144.997
20
-109.499
11
144.951
21
-109.412
0
LINE
8
BLACK
6
CONTINUOUS
10
144.951
20
-109.412
11
144.931
21
-109.347
0
LINE
8
BLACK
6
CONTINUOUS
10
144.931
20
-109.347
11
144.922
21
-109.318
0
LINE
8
BLACK
6
CONTINUOUS
10
144.922
20
-109.318
11
144.913
21
-109.22
0
LINE
8
BLACK
6
CONTINUOUS
10
144.913
20
-109.22
11
144.915
21
-109.195
0
LINE
8
BLACK
6
CONTINUOUS
10
144.915
20
-109.195
11
144.915
21
-106.07
0
LINE
8
BLACK
6
CONTINUOUS
10
144.915
20
-106.07
11
144.913
21
-106.045
0
LINE
8
BLACK
6
CONTINUOUS
10
144.913
20
-106.045
11
144.922
21
-105.947
0
LINE
8
BLACK
6
CONTINUOUS
10
144.922
20
-105.947
11
144.951
21
-105.853
0
LINE
8
BLACK
6
CONTINUOUS
10
144.951
20
-105.853
11
144.951
21
-105.853
0
LINE
8
BLACK
6
CONTINUOUS
10
144.951
20
-105.853
11
144.997
21
-105.766
0
LINE
8
BLACK
6
CONTINUOUS
10
144.997
20
-105.766
11
145.06
21
-105.69
0
LINE
8
BLACK
6
CONTINUOUS
10
145.06
20
-105.69
11
145.079
21
-105.674
0
LINE
8
BLACK
6
CONTINUOUS
10
145.079
20
-105.674
11
146.489
21
-104.264
0
LINE
8
BLACK
6
CONTINUOUS
10
146.489
20
-104.264
11
146.505
21
-104.245
0
LINE
8
BLACK
6
CONTINUOUS
10
146.505
20
-104.245
11
146.581
21
-104.182
0
LINE
8
BLACK
6
CONTINUOUS
10
146.581
20
-104.182
11
146.668
21
-104.136
0
LINE
8
BLACK
6
CONTINUOUS
10
146.668
20
-104.136
11
146.762
21
-104.107
0
LINE
8
BLACK
6
CONTINUOUS
10
146.762
20
-104.107
11
146.835
21
-104.1
0
LINE
8
BLACK
6
CONTINUOUS
10
146.835
20
-104.1
11
146.86
21
-104.098
0
LINE
8
BLACK
6
CONTINUOUS
10
146.86
20
-104.098
11
146.885
21
-104.1
0
LINE
8
BLACK
6
CONTINUOUS
10
146.885
20
-104.1
11
146.94
21
-104.1
0
LINE
8
BLACK
6
CONTINUOUS
10
146.94
20
-104.1
11
146.94
21
-102.95
0
LINE
8
BLACK
6
CONTINUOUS
10
146.94
20
-102.95
11
147.44
21
-102.95
0
LINE
8
BLACK
6
CONTINUOUS
10
147.44
20
-102.95
11
147.44
21
-104.167
0
LINE
8
BLACK
6
CONTINUOUS
10
150.163
20
-107.063
11
150.333
21
-107.114
0
LINE
8
BLACK
6
CONTINUOUS
10
150.333
20
-107.114
11
150.489
21
-107.198
0
LINE
8
BLACK
6
CONTINUOUS
10
150.489
20
-107.198
11
150.626
21
-107.311
0
LINE
8
BLACK
6
CONTINUOUS
10
150.626
20
-107.311
11
150.739
21
-107.448
0
LINE
8
BLACK
6
CONTINUOUS
10
150.739
20
-107.448
11
150.823
21
-107.604
0
LINE
8
BLACK
6
CONTINUOUS
10
150.823
20
-107.604
11
150.874
21
-107.774
0
LINE
8
BLACK
6
CONTINUOUS
10
150.874
20
-107.774
11
150.891
21
-107.95
0
LINE
8
BLACK
6
CONTINUOUS
10
150.891
20
-107.95
11
150.874
21
-108.126
0
LINE
8
BLACK
6
CONTINUOUS
10
150.874
20
-108.126
11
150.823
21
-108.296
0
LINE
8
BLACK
6
CONTINUOUS
10
150.823
20
-108.296
11
150.739
21
-108.452
0
LINE
8
BLACK
6
CONTINUOUS
10
150.739
20
-108.452
11
150.626
21
-108.589
0
LINE
8
BLACK
6
CONTINUOUS
10
150.626
20
-108.589
11
150.489
21
-108.702
0
LINE
8
BLACK
6
CONTINUOUS
10
150.489
20
-108.702
11
150.333
21
-108.786
0
LINE
8
BLACK
6
CONTINUOUS
10
150.333
20
-108.786
11
150.163
21
-108.837
0
LINE
8
BLACK
6
CONTINUOUS
10
150.163
20
-108.837
11
150.031
21
-108.85
0
LINE
8
BLACK
6
CONTINUOUS
10
150.031
20
-108.85
11
149.943
21
-108.85
0
LINE
8
BLACK
6
CONTINUOUS
10
149.943
20
-108.85
11
149.811
21
-108.837
0
LINE
8
BLACK
6
CONTINUOUS
10
149.811
20
-108.837
11
149.641
21
-108.786
0
LINE
8
BLACK
6
CONTINUOUS
10
149.641
20
-108.786
11
149.485
21
-108.702
0
LINE
8
BLACK
6
CONTINUOUS
10
149.485
20
-108.702
11
149.348
21
-108.589
0
LINE
8
BLACK
6
CONTINUOUS
10
149.348
20
-108.589
11
149.235
21
-108.452
0
LINE
8
BLACK
6
CONTINUOUS
10
149.235
20
-108.452
11
149.234
21
-108.45
0
LINE
8
BLACK
6
CONTINUOUS
10
149.234
20
-108.45
11
147.945
21
-108.45
0
LINE
8
BLACK
6
CONTINUOUS
10
147.945
20
-108.45
11
147.888
21
-108.518
0
LINE
8
BLACK
6
CONTINUOUS
10
147.888
20
-108.518
11
147.767
21
-108.618
0
LINE
8
BLACK
6
CONTINUOUS
10
147.767
20
-108.618
11
147.628
21
-108.693
0
LINE
8
BLACK
6
CONTINUOUS
10
147.628
20
-108.693
11
147.477
21
-108.738
0
LINE
8
BLACK
6
CONTINUOUS
10
147.477
20
-108.738
11
147.359
21
-108.75
0
LINE
8
BLACK
6
CONTINUOUS
10
147.359
20
-108.75
11
147.281
21
-108.75
0
LINE
8
BLACK
6
CONTINUOUS
10
147.281
20
-108.75
11
147.163
21
-108.738
0
LINE
8
BLACK
6
CONTINUOUS
10
147.163
20
-108.738
11
147.012
21
-108.693
0
LINE
8
BLACK
6
CONTINUOUS
10
147.012
20
-108.693
11
146.873
21
-108.618
0
LINE
8
BLACK
6
CONTINUOUS
10
146.873
20
-108.618
11
146.752
21
-108.518
0
LINE
8
BLACK
6
CONTINUOUS
10
146.752
20
-108.518
11
146.652
21
-108.397
0
LINE
8
BLACK
6
CONTINUOUS
10
146.652
20
-108.397
11
146.577
21
-108.258
0
LINE
8
BLACK
6
CONTINUOUS
10
146.577
20
-108.258
11
146.532
21
-108.107
0
LINE
8
BLACK
6
CONTINUOUS
10
146.532
20
-108.107
11
146.516
21
-107.95
0
LINE
8
BLACK
6
CONTINUOUS
10
146.516
20
-107.95
11
146.532
21
-107.793
0
LINE
8
BLACK
6
CONTINUOUS
10
146.532
20
-107.793
11
146.577
21
-107.642
0
LINE
8
BLACK
6
CONTINUOUS
10
146.577
20
-107.642
11
146.652
21
-107.503
0
LINE
8
BLACK
6
CONTINUOUS
10
146.652
20
-107.503
11
146.752
21
-107.382
0
LINE
8
BLACK
6
CONTINUOUS
10
146.752
20
-107.382
11
146.873
21
-107.282
0
LINE
8
BLACK
6
CONTINUOUS
10
146.873
20
-107.282
11
147.012
21
-107.207
0
LINE
8
BLACK
6
CONTINUOUS
10
147.012
20
-107.207
11
147.163
21
-107.162
0
LINE
8
BLACK
6
CONTINUOUS
10
147.163
20
-107.162
11
147.281
21
-107.15
0
LINE
8
BLACK
6
CONTINUOUS
10
147.281
20
-107.15
11
147.359
21
-107.15
0
LINE
8
BLACK
6
CONTINUOUS
10
147.359
20
-107.15
11
147.477
21
-107.162
0
LINE
8
BLACK
6
CONTINUOUS
10
147.477
20
-107.162
11
147.628
21
-107.207
0
LINE
8
BLACK
6
CONTINUOUS
10
147.628
20
-107.207
11
147.767
21
-107.282
0
LINE
8
BLACK
6
CONTINUOUS
10
147.767
20
-107.282
11
147.888
21
-107.382
0
LINE
8
BLACK
6
CONTINUOUS
10
147.888
20
-107.382
11
147.945
21
-107.45
0
LINE
8
BLACK
6
CONTINUOUS
10
147.945
20
-107.45
11
149.234
21
-107.45
0
LINE
8
BLACK
6
CONTINUOUS
10
149.234
20
-107.45
11
149.235
21
-107.448
0
LINE
8
BLACK
6
CONTINUOUS
10
149.235
20
-107.448
11
149.348
21
-107.311
0
LINE
8
BLACK
6
CONTINUOUS
10
149.348
20
-107.311
11
149.485
21
-107.198
0
LINE
8
BLACK
6
CONTINUOUS
10
149.485
20
-107.198
11
149.641
21
-107.114
0
LINE
8
BLACK
6
CONTINUOUS
10
149.641
20
-107.114
11
149.811
21
-107.063
0
LINE
8
BLACK
6
CONTINUOUS
10
149.811
20
-107.063
11
149.943
21
-107.05
0
LINE
8
BLACK
6
CONTINUOUS
10
149.943
20
-107.05
11
150.031
21
-107.05
0
LINE
8
BLACK
6
CONTINUOUS
10
150.031
20
-107.05
11
150.163
21
-107.063
0
CIRCLE
8
BLACK
10
149.9
20
-113.5
40
0.5
0
CIRCLE
8
BLACK
10
147.36
20
-113.5
40
0.5
0
CIRCLE
8
BLACK
10
149.987
20
-110.49
40
0.45
0
CIRCLE
8
BLACK
10
149.987
20
-107.95
40
0.45
0
CIRCLE
8
BLACK
10
147.32
20
-110.49
40
0.4
0
CIRCLE
8
BLACK
10
147.32
20
-107.95
40
0.4
  0
ENDSEC
  0
EOF
