  0
SECTION
  2
HEADER
  9
$ANGBASE
  50
0.0
  9
$ANGDIR
  70
  1
  9
$MEASUREMENT
  70
0
  0
ENDSEC
  0
SECTION
  2
TABLES
  0
TABLE
  2
LTYPE
  70
4
  0
LTYPE
  5
40F
  2
CONTINUOUS
  70
0
  3
Solid line
  72
65
  73
0
  40
0.0
  0
LTYPE
  5
410
  2
DASHDOT
 70
0
  3
Dash Dot ____ _ ____ _
 72
65
 73
4
 40
2.0
 49
1.25
 49
-0.25
 49
0.25
 49
-0.25
  0
LTYPE
  5
411
  2
DASHED
 70
0
  3
Dashed __ __ __ __ __
 72
65
 73
2
 40
0.75
 49
0.5
 49
-0.25
  0
LTYPE
  5
43B
  2
DOTTED
 70
0
  3
Dotted .  .  .  .
 72
65
 73
2
 40
0.2
 49
0.0
 49
-0.2
  0
ENDTAB
  0
TABLE
  2
STYLE
  70
4
  0
STYLE
  2
KICAD
  70
0
  40
0
  41
1
  42
1
  50
0
  71
0
  3
isocp.shx
  0
STYLE
  2
KICADB
  70
0
  40
0
  41
1
  42
1
  50
0
  71
0
  3
isocp.shx
  0
STYLE
  2
KICADI
  70
0
  40
0
  41
1
  42
1
  50
15
  71
0
  3
isocp.shx
  0
STYLE
  2
KICADBI
  70
0
  40
0
  41
1
  42
1
  50
15
  71
0
  3
isocp.shx
  0
ENDTAB
  0
TABLE
  2
LAYER
  70
30
  0
LAYER
  2
BLACK
  70
0
  62
7
  6
CONTINUOUS
  0
LAYER
  2
GRAY1
  70
0
  62
251
  6
CONTINUOUS
  0
LAYER
  2
GRAY2
  70
0
  62
8
  6
CONTINUOUS
  0
LAYER
  2
GRAY3
  70
0
  62
9
  6
CONTINUOUS
  0
LAYER
  2
WHITE
  70
0
  62
7
  6
CONTINUOUS
  0
LAYER
  2
LYELLOW
  70
0
  62
51
  6
CONTINUOUS
  0
LAYER
  2
BLUE1
  70
0
  62
178
  6
CONTINUOUS
  0
LAYER
  2
GREEN1
  70
0
  62
98
  6
CONTINUOUS
  0
LAYER
  2
CYAN1
  70
0
  62
138
  6
CONTINUOUS
  0
LAYER
  2
RED1
  70
0
  62
18
  6
CONTINUOUS
  0
LAYER
  2
MAGENTA1
  70
0
  62
228
  6
CONTINUOUS
  0
LAYER
  2
BROWN1
  70
0
  62
58
  6
CONTINUOUS
  0
LAYER
  2
BLUE2
  70
0
  62
5
  6
CONTINUOUS
  0
LAYER
  2
GREEN2
  70
0
  62
3
  6
CONTINUOUS
  0
LAYER
  2
CYAN2
  70
0
  62
4
  6
CONTINUOUS
  0
LAYER
  2
RED2
  70
0
  62
1
  6
CONTINUOUS
  0
LAYER
  2
MAGENTA2
  70
0
  62
6
  6
CONTINUOUS
  0
LAYER
  2
BROWN2
  70
0
  62
54
  6
CONTINUOUS
  0
LAYER
  2
BLUE3
  70
0
  62
171
  6
CONTINUOUS
  0
LAYER
  2
GREEN3
  70
0
  62
91
  6
CONTINUOUS
  0
LAYER
  2
CYAN3
  70
0
  62
131
  6
CONTINUOUS
  0
LAYER
  2
RED3
  70
0
  62
11
  6
CONTINUOUS
  0
LAYER
  2
MAGENTA3
  70
0
  62
221
  6
CONTINUOUS
  0
LAYER
  2
YELLOW3
  70
0
  62
2
  6
CONTINUOUS
  0
LAYER
  2
BLUE4
  70
0
  62
5
  6
CONTINUOUS
  0
LAYER
  2
GREEN4
  70
0
  62
3
  6
CONTINUOUS
  0
LAYER
  2
CYAN4
  70
0
  62
4
  6
CONTINUOUS
  0
LAYER
  2
RED4
  70
0
  62
1
  6
CONTINUOUS
  0
LAYER
  2
MAGENTA4
  70
0
  62
6
  6
CONTINUOUS
  0
LAYER
  2
YELLOW4
  70
0
  62
2
  6
CONTINUOUS
  0
ENDTAB
  0
ENDSEC
  0
SECTION
  2
ENTITIES
0
LINE
8
BLACK
6
CONTINUOUS
10
150.75
20
-114.35
11
149.05
21
-114.35
0
LINE
8
BLACK
6
CONTINUOUS
10
149.05
20
-114.35
11
149.05
21
-112.65
0
LINE
8
BLACK
6
CONTINUOUS
10
149.05
20
-112.65
11
150.75
21
-112.65
0
LINE
8
BLACK
6
CONTINUOUS
10
150.75
20
-112.65
11
150.75
21
-114.35
0
LINE
8
BLACK
6
CONTINUOUS
10
147.527
20
-112.662
11
147.687
21
-112.711
0
LINE
8
BLACK
6
CONTINUOUS
10
147.687
20
-112.711
11
147.835
21
-112.79
0
LINE
8
BLACK
6
CONTINUOUS
10
147.835
20
-112.79
11
147.964
21
-112.896
0
LINE
8
BLACK
6
CONTINUOUS
10
147.964
20
-112.896
11
148.07
21
-113.025
0
LINE
8
BLACK
6
CONTINUOUS
10
148.07
20
-113.025
11
148.149
21
-113.173
0
LINE
8
BLACK
6
CONTINUOUS
10
148.149
20
-113.173
11
148.198
21
-113.333
0
LINE
8
BLACK
6
CONTINUOUS
10
148.198
20
-113.333
11
148.214
21
-113.5
0
LINE
8
BLACK
6
CONTINUOUS
10
148.214
20
-113.5
11
148.198
21
-113.667
0
LINE
8
BLACK
6
CONTINUOUS
10
148.198
20
-113.667
11
148.149
21
-113.827
0
LINE
8
BLACK
6
CONTINUOUS
10
148.149
20
-113.827
11
148.07
21
-113.975
0
LINE
8
BLACK
6
CONTINUOUS
10
148.07
20
-113.975
11
147.964
21
-114.104
0
LINE
8
BLACK
6
CONTINUOUS
10
147.964
20
-114.104
11
147.835
21
-114.21
0
LINE
8
BLACK
6
CONTINUOUS
10
147.835
20
-114.21
11
147.687
21
-114.289
0
LINE
8
BLACK
6
CONTINUOUS
10
147.687
20
-114.289
11
147.527
21
-114.338
0
LINE
8
BLACK
6
CONTINUOUS
10
147.527
20
-114.338
11
147.402
21
-114.35
0
LINE
8
BLACK
6
CONTINUOUS
10
147.402
20
-114.35
11
147.318
21
-114.35
0
LINE
8
BLACK
6
CONTINUOUS
10
147.318
20
-114.35
11
147.193
21
-114.338
0
LINE
8
BLACK
6
CONTINUOUS
10
147.193
20
-114.338
11
147.033
21
-114.289
0
LINE
8
BLACK
6
CONTINUOUS
10
147.033
20
-114.289
11
146.885
21
-114.21
0
LINE
8
BLACK
6
CONTINUOUS
10
146.885
20
-114.21
11
146.756
21
-114.104
0
LINE
8
BLACK
6
CONTINUOUS
10
146.756
20
-114.104
11
146.65
21
-113.975
0
LINE
8
BLACK
6
CONTINUOUS
10
146.65
20
-113.975
11
146.571
21
-113.827
0
LINE
8
BLACK
6
CONTINUOUS
10
146.571
20
-113.827
11
146.522
21
-113.667
0
LINE
8
BLACK
6
CONTINUOUS
10
146.522
20
-113.667
11
146.506
21
-113.5
0
LINE
8
BLACK
6
CONTINUOUS
10
146.506
20
-113.5
11
146.522
21
-113.333
0
LINE
8
BLACK
6
CONTINUOUS
10
146.522
20
-113.333
11
146.571
21
-113.173
0
LINE
8
BLACK
6
CONTINUOUS
10
146.571
20
-113.173
11
146.65
21
-113.025
0
LINE
8
BLACK
6
CONTINUOUS
10
146.65
20
-113.025
11
146.756
21
-112.896
0
LINE
8
BLACK
6
CONTINUOUS
10
146.756
20
-112.896
11
146.885
21
-112.79
0
LINE
8
BLACK
6
CONTINUOUS
10
146.885
20
-112.79
11
147.033
21
-112.711
0
LINE
8
BLACK
6
CONTINUOUS
10
147.033
20
-112.711
11
147.193
21
-112.662
0
LINE
8
BLACK
6
CONTINUOUS
10
147.193
20
-112.662
11
147.318
21
-112.65
0
LINE
8
BLACK
6
CONTINUOUS
10
147.318
20
-112.65
11
147.402
21
-112.65
0
LINE
8
BLACK
6
CONTINUOUS
10
147.402
20
-112.65
11
147.527
21
-112.662
0
LINE
8
BLACK
6
CONTINUOUS
10
150.887
20
-111.39
11
149.087
21
-111.39
0
LINE
8
BLACK
6
CONTINUOUS
10
149.087
20
-111.39
11
149.087
21
-109.59
0
LINE
8
BLACK
6
CONTINUOUS
10
149.087
20
-109.59
11
150.887
21
-109.59
0
LINE
8
BLACK
6
CONTINUOUS
10
150.887
20
-109.59
11
150.887
21
-111.39
0
LINE
8
BLACK
6
CONTINUOUS
10
148.12
20
-111.29
11
146.52
21
-111.29
0
LINE
8
BLACK
6
CONTINUOUS
10
146.52
20
-111.29
11
146.52
21
-109.69
0
LINE
8
BLACK
6
CONTINUOUS
10
146.52
20
-109.69
11
148.12
21
-109.69
0
LINE
8
BLACK
6
CONTINUOUS
10
148.12
20
-109.69
11
148.12
21
-111.29
0
LINE
8
BLACK
6
CONTINUOUS
10
150.163
20
-107.063
11
150.333
21
-107.114
0
LINE
8
BLACK
6
CONTINUOUS
10
150.333
20
-107.114
11
150.489
21
-107.198
0
LINE
8
BLACK
6
CONTINUOUS
10
150.489
20
-107.198
11
150.626
21
-107.311
0
LINE
8
BLACK
6
CONTINUOUS
10
150.626
20
-107.311
11
150.739
21
-107.448
0
LINE
8
BLACK
6
CONTINUOUS
10
150.739
20
-107.448
11
150.823
21
-107.604
0
LINE
8
BLACK
6
CONTINUOUS
10
150.823
20
-107.604
11
150.874
21
-107.774
0
LINE
8
BLACK
6
CONTINUOUS
10
150.874
20
-107.774
11
150.891
21
-107.95
0
LINE
8
BLACK
6
CONTINUOUS
10
150.891
20
-107.95
11
150.874
21
-108.126
0
LINE
8
BLACK
6
CONTINUOUS
10
150.874
20
-108.126
11
150.823
21
-108.296
0
LINE
8
BLACK
6
CONTINUOUS
10
150.823
20
-108.296
11
150.739
21
-108.452
0
LINE
8
BLACK
6
CONTINUOUS
10
150.739
20
-108.452
11
150.626
21
-108.589
0
LINE
8
BLACK
6
CONTINUOUS
10
150.626
20
-108.589
11
150.489
21
-108.702
0
LINE
8
BLACK
6
CONTINUOUS
10
150.489
20
-108.702
11
150.333
21
-108.786
0
LINE
8
BLACK
6
CONTINUOUS
10
150.333
20
-108.786
11
150.163
21
-108.837
0
LINE
8
BLACK
6
CONTINUOUS
10
150.163
20
-108.837
11
150.031
21
-108.85
0
LINE
8
BLACK
6
CONTINUOUS
10
150.031
20
-108.85
11
149.943
21
-108.85
0
LINE
8
BLACK
6
CONTINUOUS
10
149.943
20
-108.85
11
149.811
21
-108.837
0
LINE
8
BLACK
6
CONTINUOUS
10
149.811
20
-108.837
11
149.641
21
-108.786
0
LINE
8
BLACK
6
CONTINUOUS
10
149.641
20
-108.786
11
149.485
21
-108.702
0
LINE
8
BLACK
6
CONTINUOUS
10
149.485
20
-108.702
11
149.348
21
-108.589
0
LINE
8
BLACK
6
CONTINUOUS
10
149.348
20
-108.589
11
149.235
21
-108.452
0
LINE
8
BLACK
6
CONTINUOUS
10
149.235
20
-108.452
11
149.151
21
-108.296
0
LINE
8
BLACK
6
CONTINUOUS
10
149.151
20
-108.296
11
149.1
21
-108.126
0
LINE
8
BLACK
6
CONTINUOUS
10
149.1
20
-108.126
11
149.083
21
-107.95
0
LINE
8
BLACK
6
CONTINUOUS
10
149.083
20
-107.95
11
149.1
21
-107.774
0
LINE
8
BLACK
6
CONTINUOUS
10
149.1
20
-107.774
11
149.151
21
-107.604
0
LINE
8
BLACK
6
CONTINUOUS
10
149.151
20
-107.604
11
149.235
21
-107.448
0
LINE
8
BLACK
6
CONTINUOUS
10
149.235
20
-107.448
11
149.348
21
-107.311
0
LINE
8
BLACK
6
CONTINUOUS
10
149.348
20
-107.311
11
149.485
21
-107.198
0
LINE
8
BLACK
6
CONTINUOUS
10
149.485
20
-107.198
11
149.641
21
-107.114
0
LINE
8
BLACK
6
CONTINUOUS
10
149.641
20
-107.114
11
149.811
21
-107.063
0
LINE
8
BLACK
6
CONTINUOUS
10
149.811
20
-107.063
11
149.943
21
-107.05
0
LINE
8
BLACK
6
CONTINUOUS
10
149.943
20
-107.05
11
150.031
21
-107.05
0
LINE
8
BLACK
6
CONTINUOUS
10
150.031
20
-107.05
11
150.163
21
-107.063
0
LINE
8
BLACK
6
CONTINUOUS
10
147.477
20
-107.162
11
147.628
21
-107.207
0
LINE
8
BLACK
6
CONTINUOUS
10
147.628
20
-107.207
11
147.767
21
-107.282
0
LINE
8
BLACK
6
CONTINUOUS
10
147.767
20
-107.282
11
147.888
21
-107.382
0
LINE
8
BLACK
6
CONTINUOUS
10
147.888
20
-107.382
11
147.988
21
-107.503
0
LINE
8
BLACK
6
CONTINUOUS
10
147.988
20
-107.503
11
148.063
21
-107.642
0
LINE
8
BLACK
6
CONTINUOUS
10
148.063
20
-107.642
11
148.108
21
-107.793
0
LINE
8
BLACK
6
CONTINUOUS
10
148.108
20
-107.793
11
148.124
21
-107.95
0
LINE
8
BLACK
6
CONTINUOUS
10
148.124
20
-107.95
11
148.108
21
-108.107
0
LINE
8
BLACK
6
CONTINUOUS
10
148.108
20
-108.107
11
148.063
21
-108.258
0
LINE
8
BLACK
6
CONTINUOUS
10
148.063
20
-108.258
11
147.988
21
-108.397
0
LINE
8
BLACK
6
CONTINUOUS
10
147.988
20
-108.397
11
147.888
21
-108.518
0
LINE
8
BLACK
6
CONTINUOUS
10
147.888
20
-108.518
11
147.767
21
-108.618
0
LINE
8
BLACK
6
CONTINUOUS
10
147.767
20
-108.618
11
147.628
21
-108.693
0
LINE
8
BLACK
6
CONTINUOUS
10
147.628
20
-108.693
11
147.477
21
-108.738
0
LINE
8
BLACK
6
CONTINUOUS
10
147.477
20
-108.738
11
147.359
21
-108.75
0
LINE
8
BLACK
6
CONTINUOUS
10
147.359
20
-108.75
11
147.281
21
-108.75
0
LINE
8
BLACK
6
CONTINUOUS
10
147.281
20
-108.75
11
147.163
21
-108.738
0
LINE
8
BLACK
6
CONTINUOUS
10
147.163
20
-108.738
11
147.012
21
-108.693
0
LINE
8
BLACK
6
CONTINUOUS
10
147.012
20
-108.693
11
146.873
21
-108.618
0
LINE
8
BLACK
6
CONTINUOUS
10
146.873
20
-108.618
11
146.752
21
-108.518
0
LINE
8
BLACK
6
CONTINUOUS
10
146.752
20
-108.518
11
146.652
21
-108.397
0
LINE
8
BLACK
6
CONTINUOUS
10
146.652
20
-108.397
11
146.577
21
-108.258
0
LINE
8
BLACK
6
CONTINUOUS
10
146.577
20
-108.258
11
146.532
21
-108.107
0
LINE
8
BLACK
6
CONTINUOUS
10
146.532
20
-108.107
11
146.516
21
-107.95
0
LINE
8
BLACK
6
CONTINUOUS
10
146.516
20
-107.95
11
146.532
21
-107.793
0
LINE
8
BLACK
6
CONTINUOUS
10
146.532
20
-107.793
11
146.577
21
-107.642
0
LINE
8
BLACK
6
CONTINUOUS
10
146.577
20
-107.642
11
146.652
21
-107.503
0
LINE
8
BLACK
6
CONTINUOUS
10
146.652
20
-107.503
11
146.752
21
-107.382
0
LINE
8
BLACK
6
CONTINUOUS
10
146.752
20
-107.382
11
146.873
21
-107.282
0
LINE
8
BLACK
6
CONTINUOUS
10
146.873
20
-107.282
11
147.012
21
-107.207
0
LINE
8
BLACK
6
CONTINUOUS
10
147.012
20
-107.207
11
147.163
21
-107.162
0
LINE
8
BLACK
6
CONTINUOUS
10
147.163
20
-107.162
11
147.281
21
-107.15
0
LINE
8
BLACK
6
CONTINUOUS
10
147.281
20
-107.15
11
147.359
21
-107.15
0
LINE
8
BLACK
6
CONTINUOUS
10
147.359
20
-107.15
11
147.477
21
-107.162
0
CIRCLE
8
BLACK
10
149.9
20
-113.5
40
0.5
0
CIRCLE
8
BLACK
10
147.36
20
-113.5
40
0.5
0
CIRCLE
8
BLACK
10
149.987
20
-110.49
40
0.45
0
CIRCLE
8
BLACK
10
149.987
20
-107.95
40
0.45
0
CIRCLE
8
BLACK
10
147.32
20
-110.49
40
0.4
0
CIRCLE
8
BLACK
10
147.32
20
-107.95
40
0.4
  0
ENDSEC
  0
EOF
