  0
SECTION
  2
HEADER
  9
$ANGBASE
  50
0.0
  9
$ANGDIR
  70
  1
  9
$MEASUREMENT
  70
0
  0
ENDSEC
  0
SECTION
  2
TABLES
  0
TABLE
  2
LTYPE
  70
4
  0
LTYPE
  5
40F
  2
CONTINUOUS
  70
0
  3
Solid line
  72
65
  73
0
  40
0.0
  0
LTYPE
  5
410
  2
DASHDOT
 70
0
  3
Dash Dot ____ _ ____ _
 72
65
 73
4
 40
2.0
 49
1.25
 49
-0.25
 49
0.25
 49
-0.25
  0
LTYPE
  5
411
  2
DASHED
 70
0
  3
Dashed __ __ __ __ __
 72
65
 73
2
 40
0.75
 49
0.5
 49
-0.25
  0
LTYPE
  5
43B
  2
DOTTED
 70
0
  3
Dotted .  .  .  .
 72
65
 73
2
 40
0.2
 49
0.0
 49
-0.2
  0
ENDTAB
  0
TABLE
  2
STYLE
  70
4
  0
STYLE
  2
KICAD
  70
0
  40
0
  41
1
  42
1
  50
0
  71
0
  3
isocp.shx
  0
STYLE
  2
KICADB
  70
0
  40
0
  41
1
  42
1
  50
0
  71
0
  3
isocp.shx
  0
STYLE
  2
KICADI
  70
0
  40
0
  41
1
  42
1
  50
15
  71
0
  3
isocp.shx
  0
STYLE
  2
KICADBI
  70
0
  40
0
  41
1
  42
1
  50
15
  71
0
  3
isocp.shx
  0
ENDTAB
  0
TABLE
  2
LAYER
  70
30
  0
LAYER
  2
BLACK
  70
0
  62
7
  6
CONTINUOUS
  0
LAYER
  2
GRAY1
  70
0
  62
251
  6
CONTINUOUS
  0
LAYER
  2
GRAY2
  70
0
  62
8
  6
CONTINUOUS
  0
LAYER
  2
GRAY3
  70
0
  62
9
  6
CONTINUOUS
  0
LAYER
  2
WHITE
  70
0
  62
7
  6
CONTINUOUS
  0
LAYER
  2
LYELLOW
  70
0
  62
51
  6
CONTINUOUS
  0
LAYER
  2
BLUE1
  70
0
  62
178
  6
CONTINUOUS
  0
LAYER
  2
GREEN1
  70
0
  62
98
  6
CONTINUOUS
  0
LAYER
  2
CYAN1
  70
0
  62
138
  6
CONTINUOUS
  0
LAYER
  2
RED1
  70
0
  62
18
  6
CONTINUOUS
  0
LAYER
  2
MAGENTA1
  70
0
  62
228
  6
CONTINUOUS
  0
LAYER
  2
BROWN1
  70
0
  62
58
  6
CONTINUOUS
  0
LAYER
  2
BLUE2
  70
0
  62
5
  6
CONTINUOUS
  0
LAYER
  2
GREEN2
  70
0
  62
3
  6
CONTINUOUS
  0
LAYER
  2
CYAN2
  70
0
  62
4
  6
CONTINUOUS
  0
LAYER
  2
RED2
  70
0
  62
1
  6
CONTINUOUS
  0
LAYER
  2
MAGENTA2
  70
0
  62
6
  6
CONTINUOUS
  0
LAYER
  2
BROWN2
  70
0
  62
54
  6
CONTINUOUS
  0
LAYER
  2
BLUE3
  70
0
  62
171
  6
CONTINUOUS
  0
LAYER
  2
GREEN3
  70
0
  62
91
  6
CONTINUOUS
  0
LAYER
  2
CYAN3
  70
0
  62
131
  6
CONTINUOUS
  0
LAYER
  2
RED3
  70
0
  62
11
  6
CONTINUOUS
  0
LAYER
  2
MAGENTA3
  70
0
  62
221
  6
CONTINUOUS
  0
LAYER
  2
YELLOW3
  70
0
  62
2
  6
CONTINUOUS
  0
LAYER
  2
BLUE4
  70
0
  62
5
  6
CONTINUOUS
  0
LAYER
  2
GREEN4
  70
0
  62
3
  6
CONTINUOUS
  0
LAYER
  2
CYAN4
  70
0
  62
4
  6
CONTINUOUS
  0
LAYER
  2
RED4
  70
0
  62
1
  6
CONTINUOUS
  0
LAYER
  2
MAGENTA4
  70
0
  62
6
  6
CONTINUOUS
  0
LAYER
  2
YELLOW4
  70
0
  62
2
  6
CONTINUOUS
  0
ENDTAB
  0
ENDSEC
  0
SECTION
  2
ENTITIES
0
LINE
8
BLACK
6
CONTINUOUS
10
97.79
20
-121.152
11
97.7654
21
-121.15
0
LINE
8
BLACK
6
CONTINUOUS
10
97.7654
20
-121.15
11
97.7654
21
-121.15
0
LINE
8
BLACK
6
CONTINUOUS
10
97.7654
20
-121.15
11
97.692
21
-121.143
0
LINE
8
BLACK
6
CONTINUOUS
10
97.692
20
-121.143
11
97.5977
21
-121.114
0
LINE
8
BLACK
6
CONTINUOUS
10
97.5977
20
-121.114
11
97.5109
21
-121.068
0
LINE
8
BLACK
6
CONTINUOUS
10
97.5109
20
-121.068
11
97.4347
21
-121.005
0
LINE
8
BLACK
6
CONTINUOUS
10
97.4347
20
-121.005
11
97.4191
21
-120.986
0
LINE
8
BLACK
6
CONTINUOUS
10
97.4191
20
-120.986
11
91.1038
21
-114.671
0
LINE
8
BLACK
6
CONTINUOUS
10
91.1038
20
-114.671
11
91.0847
21
-114.655
0
LINE
8
BLACK
6
CONTINUOUS
10
91.0847
20
-114.655
11
91.0223
21
-114.579
0
LINE
8
BLACK
6
CONTINUOUS
10
91.0223
20
-114.579
11
90.9758
21
-114.492
0
LINE
8
BLACK
6
CONTINUOUS
10
90.9758
20
-114.492
11
90.9472
21
-114.398
0
LINE
8
BLACK
6
CONTINUOUS
10
90.9472
20
-114.398
11
90.94
21
-114.325
0
LINE
8
BLACK
6
CONTINUOUS
10
90.94
20
-114.325
11
90.9376
21
-114.3
0
LINE
8
BLACK
6
CONTINUOUS
10
90.9376
20
-114.3
11
90.94
21
-114.275
0
LINE
8
BLACK
6
CONTINUOUS
10
90.94
20
-114.275
11
90.94
21
-74.9546
0
LINE
8
BLACK
6
CONTINUOUS
10
90.94
20
-74.9546
11
90.9376
21
-74.93
0
LINE
8
BLACK
6
CONTINUOUS
10
90.9376
20
-74.93
11
90.9472
21
-74.832
0
LINE
8
BLACK
6
CONTINUOUS
10
90.9472
20
-74.832
11
90.9758
21
-74.7377
0
LINE
8
BLACK
6
CONTINUOUS
10
90.9758
20
-74.7377
11
91.0223
21
-74.6509
0
LINE
8
BLACK
6
CONTINUOUS
10
91.0223
20
-74.6509
11
91.0847
21
-74.5747
0
LINE
8
BLACK
6
CONTINUOUS
10
91.0847
20
-74.5747
11
91.1609
21
-74.5123
0
LINE
8
BLACK
6
CONTINUOUS
10
91.1609
20
-74.5123
11
91.2477
21
-74.4658
0
LINE
8
BLACK
6
CONTINUOUS
10
91.2477
20
-74.4658
11
91.342
21
-74.4372
0
LINE
8
BLACK
6
CONTINUOUS
10
91.342
20
-74.4372
11
91.4154
21
-74.43
0
LINE
8
BLACK
6
CONTINUOUS
10
91.4154
20
-74.43
11
91.44
21
-74.4276
0
LINE
8
BLACK
6
CONTINUOUS
10
91.44
20
-74.4276
11
91.4646
21
-74.43
0
LINE
8
BLACK
6
CONTINUOUS
10
91.4646
20
-74.43
11
142.85
21
-74.43
0
LINE
8
BLACK
6
CONTINUOUS
10
142.85
20
-74.43
11
142.875
21
-74.4276
0
LINE
8
BLACK
6
CONTINUOUS
10
142.875
20
-74.4276
11
142.9
21
-74.43
0
LINE
8
BLACK
6
CONTINUOUS
10
142.9
20
-74.43
11
142.973
21
-74.4372
0
LINE
8
BLACK
6
CONTINUOUS
10
142.973
20
-74.4372
11
143.067
21
-74.4658
0
LINE
8
BLACK
6
CONTINUOUS
10
143.067
20
-74.4658
11
143.154
21
-74.5123
0
LINE
8
BLACK
6
CONTINUOUS
10
143.154
20
-74.5123
11
143.23
21
-74.5747
0
LINE
8
BLACK
6
CONTINUOUS
10
143.23
20
-74.5747
11
143.246
21
-74.5938
0
LINE
8
BLACK
6
CONTINUOUS
10
143.246
20
-74.5938
11
143.846
21
-75.1941
0
LINE
8
BLACK
6
CONTINUOUS
10
143.846
20
-75.1941
11
143.865
21
-75.2097
0
LINE
8
BLACK
6
CONTINUOUS
10
143.865
20
-75.2097
11
143.928
21
-75.2859
0
LINE
8
BLACK
6
CONTINUOUS
10
143.928
20
-75.2859
11
143.974
21
-75.3727
0
LINE
8
BLACK
6
CONTINUOUS
10
143.974
20
-75.3727
11
143.992
21
-75.43
0
LINE
8
BLACK
6
CONTINUOUS
10
143.992
20
-75.43
11
144.003
21
-75.467
0
LINE
8
BLACK
6
CONTINUOUS
10
144.003
20
-75.467
11
144.012
21
-75.565
0
LINE
8
BLACK
6
CONTINUOUS
10
144.012
20
-75.565
11
144.01
21
-75.5896
0
LINE
8
BLACK
6
CONTINUOUS
10
144.01
20
-75.5896
11
144.01
21
-120.625
0
LINE
8
BLACK
6
CONTINUOUS
10
144.01
20
-120.625
11
144.012
21
-120.65
0
LINE
8
BLACK
6
CONTINUOUS
10
144.012
20
-120.65
11
144.003
21
-120.748
0
LINE
8
BLACK
6
CONTINUOUS
10
144.003
20
-120.748
11
143.974
21
-120.842
0
LINE
8
BLACK
6
CONTINUOUS
10
143.974
20
-120.842
11
143.928
21
-120.929
0
LINE
8
BLACK
6
CONTINUOUS
10
143.928
20
-120.929
11
143.865
21
-121.005
0
LINE
8
BLACK
6
CONTINUOUS
10
143.865
20
-121.005
11
143.789
21
-121.068
0
LINE
8
BLACK
6
CONTINUOUS
10
143.789
20
-121.068
11
143.702
21
-121.114
0
LINE
8
BLACK
6
CONTINUOUS
10
143.702
20
-121.114
11
143.608
21
-121.143
0
LINE
8
BLACK
6
CONTINUOUS
10
143.608
20
-121.143
11
143.535
21
-121.15
0
LINE
8
BLACK
6
CONTINUOUS
10
143.535
20
-121.15
11
143.51
21
-121.152
0
LINE
8
BLACK
6
CONTINUOUS
10
143.51
20
-121.152
11
143.485
21
-121.15
0
LINE
8
BLACK
6
CONTINUOUS
10
143.485
20
-121.15
11
97.8146
21
-121.15
0
LINE
8
BLACK
6
CONTINUOUS
10
97.8146
20
-121.15
11
97.79
21
-121.152
0
LINE
8
BLACK
6
CONTINUOUS
10
143.01
20
-75.7721
11
142.668
21
-75.43
0
LINE
8
BLACK
6
CONTINUOUS
10
142.668
20
-75.43
11
91.94
21
-75.43
0
LINE
8
BLACK
6
CONTINUOUS
10
91.94
20
-75.43
11
91.94
21
-114.093
0
LINE
8
BLACK
6
CONTINUOUS
10
91.94
20
-114.093
11
97.9971
21
-120.15
0
LINE
8
BLACK
6
CONTINUOUS
10
97.9971
20
-120.15
11
143.01
21
-120.15
0
LINE
8
BLACK
6
CONTINUOUS
10
143.01
20
-120.15
11
143.01
21
-75.7721
0
LINE
8
BLACK
6
CONTINUOUS
10
105.555
20
-94.9
11
111.327
21
-94.9
0
LINE
8
BLACK
6
CONTINUOUS
10
111.327
20
-94.9
11
111.379
21
-94.9051
0
LINE
8
BLACK
6
CONTINUOUS
10
111.379
20
-94.9051
11
111.445
21
-94.9251
0
LINE
8
BLACK
6
CONTINUOUS
10
111.445
20
-94.9251
11
111.491
21
-94.95
0
LINE
8
BLACK
6
CONTINUOUS
10
111.491
20
-94.95
11
111.51
21
-94.95
0
LINE
8
BLACK
6
CONTINUOUS
10
111.51
20
-94.95
11
111.51
21
-94.9614
0
LINE
8
BLACK
6
CONTINUOUS
10
111.51
20
-94.9614
11
111.559
21
-95.0013
0
LINE
8
BLACK
6
CONTINUOUS
10
111.559
20
-95.0013
11
111.602
21
-95.0546
0
LINE
8
BLACK
6
CONTINUOUS
10
111.602
20
-95.0546
11
111.635
21
-95.1154
0
LINE
8
BLACK
6
CONTINUOUS
10
111.635
20
-95.1154
11
111.655
21
-95.1814
0
LINE
8
BLACK
6
CONTINUOUS
10
111.655
20
-95.1814
11
111.662
21
-95.25
0
LINE
8
BLACK
6
CONTINUOUS
10
111.662
20
-95.25
11
111.655
21
-95.3186
0
LINE
8
BLACK
6
CONTINUOUS
10
111.655
20
-95.3186
11
111.635
21
-95.3846
0
LINE
8
BLACK
6
CONTINUOUS
10
111.635
20
-95.3846
11
111.602
21
-95.4454
0
LINE
8
BLACK
6
CONTINUOUS
10
111.602
20
-95.4454
11
111.559
21
-95.4987
0
LINE
8
BLACK
6
CONTINUOUS
10
111.559
20
-95.4987
11
111.51
21
-95.5386
0
LINE
8
BLACK
6
CONTINUOUS
10
111.51
20
-95.5386
11
111.51
21
-95.55
0
LINE
8
BLACK
6
CONTINUOUS
10
111.51
20
-95.55
11
111.491
21
-95.55
0
LINE
8
BLACK
6
CONTINUOUS
10
111.491
20
-95.55
11
111.445
21
-95.5749
0
LINE
8
BLACK
6
CONTINUOUS
10
111.445
20
-95.5749
11
111.379
21
-95.5949
0
LINE
8
BLACK
6
CONTINUOUS
10
111.379
20
-95.5949
11
111.327
21
-95.6
0
LINE
8
BLACK
6
CONTINUOUS
10
111.327
20
-95.6
11
105.427
21
-95.6
0
LINE
8
BLACK
6
CONTINUOUS
10
105.427
20
-95.6
11
105.41
21
-95.6017
0
LINE
8
BLACK
6
CONTINUOUS
10
105.41
20
-95.6017
11
105.341
21
-95.5949
0
LINE
8
BLACK
6
CONTINUOUS
10
105.341
20
-95.5949
11
105.321
21
-95.5889
0
LINE
8
BLACK
6
CONTINUOUS
10
105.321
20
-95.5889
11
105.275
21
-95.5749
0
LINE
8
BLACK
6
CONTINUOUS
10
105.275
20
-95.5749
11
105.215
21
-95.5424
0
LINE
8
BLACK
6
CONTINUOUS
10
105.215
20
-95.5424
11
105.161
21
-95.4987
0
LINE
8
BLACK
6
CONTINUOUS
10
105.161
20
-95.4987
11
105.15
21
-95.4853
0
LINE
8
BLACK
6
CONTINUOUS
10
105.15
20
-95.4853
11
104.124
21
-94.459
0
LINE
8
BLACK
6
CONTINUOUS
10
104.124
20
-94.459
11
104.124
21
-106.169
0
LINE
8
BLACK
6
CONTINUOUS
10
104.124
20
-106.169
11
105.301
21
-107.346
0
LINE
8
BLACK
6
CONTINUOUS
10
105.301
20
-107.346
11
111.327
21
-107.346
0
LINE
8
BLACK
6
CONTINUOUS
10
111.327
20
-107.346
11
111.379
21
-107.351
0
LINE
8
BLACK
6
CONTINUOUS
10
111.379
20
-107.351
11
111.445
21
-107.371
0
LINE
8
BLACK
6
CONTINUOUS
10
111.445
20
-107.371
11
111.491
21
-107.396
0
LINE
8
BLACK
6
CONTINUOUS
10
111.491
20
-107.396
11
111.51
21
-107.396
0
LINE
8
BLACK
6
CONTINUOUS
10
111.51
20
-107.396
11
111.51
21
-107.407
0
LINE
8
BLACK
6
CONTINUOUS
10
111.51
20
-107.407
11
111.559
21
-107.447
0
LINE
8
BLACK
6
CONTINUOUS
10
111.559
20
-107.447
11
111.602
21
-107.501
0
LINE
8
BLACK
6
CONTINUOUS
10
111.602
20
-107.501
11
111.635
21
-107.561
0
LINE
8
BLACK
6
CONTINUOUS
10
111.635
20
-107.561
11
111.655
21
-107.627
0
LINE
8
BLACK
6
CONTINUOUS
10
111.655
20
-107.627
11
111.662
21
-107.696
0
LINE
8
BLACK
6
CONTINUOUS
10
111.662
20
-107.696
11
111.655
21
-107.765
0
LINE
8
BLACK
6
CONTINUOUS
10
111.655
20
-107.765
11
111.635
21
-107.831
0
LINE
8
BLACK
6
CONTINUOUS
10
111.635
20
-107.831
11
111.602
21
-107.891
0
LINE
8
BLACK
6
CONTINUOUS
10
111.602
20
-107.891
11
111.559
21
-107.945
0
LINE
8
BLACK
6
CONTINUOUS
10
111.559
20
-107.945
11
111.51
21
-107.985
0
LINE
8
BLACK
6
CONTINUOUS
10
111.51
20
-107.985
11
111.51
21
-107.996
0
LINE
8
BLACK
6
CONTINUOUS
10
111.51
20
-107.996
11
111.491
21
-107.996
0
LINE
8
BLACK
6
CONTINUOUS
10
111.491
20
-107.996
11
111.445
21
-108.021
0
LINE
8
BLACK
6
CONTINUOUS
10
111.445
20
-108.021
11
111.379
21
-108.041
0
LINE
8
BLACK
6
CONTINUOUS
10
111.379
20
-108.041
11
111.327
21
-108.046
0
LINE
8
BLACK
6
CONTINUOUS
10
111.327
20
-108.046
11
105.173
21
-108.046
0
LINE
8
BLACK
6
CONTINUOUS
10
105.173
20
-108.046
11
105.156
21
-108.048
0
LINE
8
BLACK
6
CONTINUOUS
10
105.156
20
-108.048
11
105.087
21
-108.041
0
LINE
8
BLACK
6
CONTINUOUS
10
105.087
20
-108.041
11
105.021
21
-108.021
0
LINE
8
BLACK
6
CONTINUOUS
10
105.021
20
-108.021
11
104.961
21
-107.988
0
LINE
8
BLACK
6
CONTINUOUS
10
104.961
20
-107.988
11
104.907
21
-107.945
0
LINE
8
BLACK
6
CONTINUOUS
10
104.907
20
-107.945
11
104.896
21
-107.931
0
LINE
8
BLACK
6
CONTINUOUS
10
104.896
20
-107.931
11
104.124
21
-107.159
0
LINE
8
BLACK
6
CONTINUOUS
10
104.124
20
-107.159
11
104.124
21
-114.267
0
LINE
8
BLACK
6
CONTINUOUS
10
104.124
20
-114.267
11
107.602
21
-117.745
0
LINE
8
BLACK
6
CONTINUOUS
10
107.602
20
-117.745
11
133.064
21
-117.745
0
LINE
8
BLACK
6
CONTINUOUS
10
133.064
20
-117.745
11
133.173
21
-117.656
0
LINE
8
BLACK
6
CONTINUOUS
10
133.173
20
-117.656
11
133.346
21
-117.563
0
LINE
8
BLACK
6
CONTINUOUS
10
133.346
20
-117.563
11
133.383
21
-117.551
0
LINE
8
BLACK
6
CONTINUOUS
10
133.383
20
-117.551
11
136.16
21
-114.775
0
LINE
8
BLACK
6
CONTINUOUS
10
136.16
20
-114.775
11
136.16
21
-111.301
0
LINE
8
BLACK
6
CONTINUOUS
10
136.16
20
-111.301
11
136.155
21
-111.252
0
LINE
8
BLACK
6
CONTINUOUS
10
136.155
20
-111.252
11
136.174
21
-111.056
0
LINE
8
BLACK
6
CONTINUOUS
10
136.174
20
-111.056
11
136.232
21
-110.867
0
LINE
8
BLACK
6
CONTINUOUS
10
136.232
20
-110.867
11
136.325
21
-110.694
0
LINE
8
BLACK
6
CONTINUOUS
10
136.325
20
-110.694
11
136.449
21
-110.541
0
LINE
8
BLACK
6
CONTINUOUS
10
136.449
20
-110.541
11
136.602
21
-110.417
0
LINE
8
BLACK
6
CONTINUOUS
10
136.602
20
-110.417
11
136.775
21
-110.324
0
LINE
8
BLACK
6
CONTINUOUS
10
136.775
20
-110.324
11
136.964
21
-110.266
0
LINE
8
BLACK
6
CONTINUOUS
10
136.964
20
-110.266
11
137.111
21
-110.252
0
LINE
8
BLACK
6
CONTINUOUS
10
137.111
20
-110.252
11
137.16
21
-110.247
0
LINE
8
BLACK
6
CONTINUOUS
10
137.16
20
-110.247
11
137.209
21
-110.252
0
LINE
8
BLACK
6
CONTINUOUS
10
137.209
20
-110.252
11
138.524
21
-110.252
0
LINE
8
BLACK
6
CONTINUOUS
10
138.524
20
-110.252
11
138.827
21
-109.949
0
LINE
8
BLACK
6
CONTINUOUS
10
138.827
20
-109.949
11
138.827
21
-106.459
0
LINE
8
BLACK
6
CONTINUOUS
10
138.827
20
-106.459
11
136.488
21
-104.12
0
LINE
8
BLACK
6
CONTINUOUS
10
136.488
20
-104.12
11
136.449
21
-104.089
0
LINE
8
BLACK
6
CONTINUOUS
10
136.449
20
-104.089
11
136.325
21
-103.936
0
LINE
8
BLACK
6
CONTINUOUS
10
136.325
20
-103.936
11
136.232
21
-103.763
0
LINE
8
BLACK
6
CONTINUOUS
10
136.232
20
-103.763
11
136.225
21
-103.742
0
LINE
8
BLACK
6
CONTINUOUS
10
136.225
20
-103.742
11
136.174
21
-103.574
0
LINE
8
BLACK
6
CONTINUOUS
10
136.174
20
-103.574
11
136.155
21
-103.378
0
LINE
8
BLACK
6
CONTINUOUS
10
136.155
20
-103.378
11
136.16
21
-103.329
0
LINE
8
BLACK
6
CONTINUOUS
10
136.16
20
-103.329
11
136.16
21
-99.1091
0
LINE
8
BLACK
6
CONTINUOUS
10
136.16
20
-99.1091
11
136.155
21
-99.06
0
LINE
8
BLACK
6
CONTINUOUS
10
136.155
20
-99.06
11
136.174
21
-98.864
0
LINE
8
BLACK
6
CONTINUOUS
10
136.174
20
-98.864
11
136.232
21
-98.6755
0
LINE
8
BLACK
6
CONTINUOUS
10
136.232
20
-98.6755
11
136.325
21
-98.5017
0
LINE
8
BLACK
6
CONTINUOUS
10
136.325
20
-98.5017
11
136.449
21
-98.3495
0
LINE
8
BLACK
6
CONTINUOUS
10
136.449
20
-98.3495
11
136.602
21
-98.2245
0
LINE
8
BLACK
6
CONTINUOUS
10
136.602
20
-98.2245
11
136.775
21
-98.1317
0
LINE
8
BLACK
6
CONTINUOUS
10
136.775
20
-98.1317
11
136.964
21
-98.0745
0
LINE
8
BLACK
6
CONTINUOUS
10
136.964
20
-98.0745
11
137.111
21
-98.06
0
LINE
8
BLACK
6
CONTINUOUS
10
137.111
20
-98.06
11
137.16
21
-98.0552
0
LINE
8
BLACK
6
CONTINUOUS
10
137.16
20
-98.0552
11
137.209
21
-98.06
0
LINE
8
BLACK
6
CONTINUOUS
10
137.209
20
-98.06
11
138.143
21
-98.06
0
LINE
8
BLACK
6
CONTINUOUS
10
138.143
20
-98.06
11
138.954
21
-97.2488
0
LINE
8
BLACK
6
CONTINUOUS
10
138.954
20
-97.2488
11
138.954
21
-93.8862
0
LINE
8
BLACK
6
CONTINUOUS
10
138.954
20
-93.8862
11
136.488
21
-91.4198
0
LINE
8
BLACK
6
CONTINUOUS
10
136.488
20
-91.4198
11
136.449
21
-91.3885
0
LINE
8
BLACK
6
CONTINUOUS
10
136.449
20
-91.3885
11
136.325
21
-91.2363
0
LINE
8
BLACK
6
CONTINUOUS
10
136.325
20
-91.2363
11
136.232
21
-91.0625
0
LINE
8
BLACK
6
CONTINUOUS
10
136.232
20
-91.0625
11
136.228
21
-91.051
0
LINE
8
BLACK
6
CONTINUOUS
10
136.228
20
-91.051
11
136.174
21
-90.874
0
LINE
8
BLACK
6
CONTINUOUS
10
136.174
20
-90.874
11
136.155
21
-90.678
0
LINE
8
BLACK
6
CONTINUOUS
10
136.155
20
-90.678
11
136.16
21
-90.6289
0
LINE
8
BLACK
6
CONTINUOUS
10
136.16
20
-90.6289
11
136.16
21
-86.8189
0
LINE
8
BLACK
6
CONTINUOUS
10
136.16
20
-86.8189
11
136.174
21
-86.672
0
LINE
8
BLACK
6
CONTINUOUS
10
136.174
20
-86.672
11
136.232
21
-86.4835
0
LINE
8
BLACK
6
CONTINUOUS
10
136.232
20
-86.4835
11
136.325
21
-86.3097
0
LINE
8
BLACK
6
CONTINUOUS
10
136.325
20
-86.3097
11
136.449
21
-86.1575
0
LINE
8
BLACK
6
CONTINUOUS
10
136.449
20
-86.1575
11
136.602
21
-86.0325
0
LINE
8
BLACK
6
CONTINUOUS
10
136.602
20
-86.0325
11
136.775
21
-85.9397
0
LINE
8
BLACK
6
CONTINUOUS
10
136.775
20
-85.9397
11
136.964
21
-85.8825
0
LINE
8
BLACK
6
CONTINUOUS
10
136.964
20
-85.8825
11
137.16
21
-85.8632
0
LINE
8
BLACK
6
CONTINUOUS
10
137.16
20
-85.8632
11
137.356
21
-85.8825
0
LINE
8
BLACK
6
CONTINUOUS
10
137.356
20
-85.8825
11
137.545
21
-85.9397
0
LINE
8
BLACK
6
CONTINUOUS
10
137.545
20
-85.9397
11
137.718
21
-86.0325
0
LINE
8
BLACK
6
CONTINUOUS
10
137.718
20
-86.0325
11
137.871
21
-86.1575
0
LINE
8
BLACK
6
CONTINUOUS
10
137.871
20
-86.1575
11
137.995
21
-86.3097
0
LINE
8
BLACK
6
CONTINUOUS
10
137.995
20
-86.3097
11
138.088
21
-86.4835
0
LINE
8
BLACK
6
CONTINUOUS
10
138.088
20
-86.4835
11
138.146
21
-86.672
0
LINE
8
BLACK
6
CONTINUOUS
10
138.146
20
-86.672
11
138.16
21
-86.8189
0
LINE
8
BLACK
6
CONTINUOUS
10
138.16
20
-86.8189
11
138.16
21
-90.2638
0
LINE
8
BLACK
6
CONTINUOUS
10
138.16
20
-90.2638
11
140.626
21
-92.7302
0
LINE
8
BLACK
6
CONTINUOUS
10
140.626
20
-92.7302
11
140.665
21
-92.7615
0
LINE
8
BLACK
6
CONTINUOUS
10
140.665
20
-92.7615
11
140.696
21
-92.7996
0
LINE
8
BLACK
6
CONTINUOUS
10
140.696
20
-92.7996
11
140.789
21
-92.9137
0
LINE
8
BLACK
6
CONTINUOUS
10
140.789
20
-92.9137
11
140.882
21
-93.0875
0
LINE
8
BLACK
6
CONTINUOUS
10
140.882
20
-93.0875
11
140.94
21
-93.276
0
LINE
8
BLACK
6
CONTINUOUS
10
140.94
20
-93.276
11
140.959
21
-93.472
0
LINE
8
BLACK
6
CONTINUOUS
10
140.959
20
-93.472
11
140.954
21
-93.5211
0
LINE
8
BLACK
6
CONTINUOUS
10
140.954
20
-93.5211
11
140.954
21
-97.6139
0
LINE
8
BLACK
6
CONTINUOUS
10
140.954
20
-97.6139
11
140.959
21
-97.663
0
LINE
8
BLACK
6
CONTINUOUS
10
140.959
20
-97.663
11
140.954
21
-97.7121
0
LINE
8
BLACK
6
CONTINUOUS
10
140.954
20
-97.7121
11
140.954
21
-97.7121
0
LINE
8
BLACK
6
CONTINUOUS
10
140.954
20
-97.7121
11
140.94
21
-97.859
0
LINE
8
BLACK
6
CONTINUOUS
10
140.94
20
-97.859
11
140.882
21
-98.0475
0
LINE
8
BLACK
6
CONTINUOUS
10
140.882
20
-98.0475
11
140.789
21
-98.2213
0
LINE
8
BLACK
6
CONTINUOUS
10
140.789
20
-98.2213
11
140.665
21
-98.3735
0
LINE
8
BLACK
6
CONTINUOUS
10
140.665
20
-98.3735
11
140.626
21
-98.4048
0
LINE
8
BLACK
6
CONTINUOUS
10
140.626
20
-98.4048
11
139.299
21
-99.7324
0
LINE
8
BLACK
6
CONTINUOUS
10
139.299
20
-99.7324
11
139.268
21
-99.7705
0
LINE
8
BLACK
6
CONTINUOUS
10
139.268
20
-99.7705
11
139.115
21
-99.8955
0
LINE
8
BLACK
6
CONTINUOUS
10
139.115
20
-99.8955
11
138.942
21
-99.9883
0
LINE
8
BLACK
6
CONTINUOUS
10
138.942
20
-99.9883
11
138.753
21
-100.046
0
LINE
8
BLACK
6
CONTINUOUS
10
138.753
20
-100.046
11
138.606
21
-100.06
0
LINE
8
BLACK
6
CONTINUOUS
10
138.606
20
-100.06
11
138.557
21
-100.065
0
LINE
8
BLACK
6
CONTINUOUS
10
138.557
20
-100.065
11
138.508
21
-100.06
0
LINE
8
BLACK
6
CONTINUOUS
10
138.508
20
-100.06
11
138.16
21
-100.06
0
LINE
8
BLACK
6
CONTINUOUS
10
138.16
20
-100.06
11
138.16
21
-102.964
0
LINE
8
BLACK
6
CONTINUOUS
10
138.16
20
-102.964
11
140.499
21
-105.303
0
LINE
8
BLACK
6
CONTINUOUS
10
140.499
20
-105.303
11
140.538
21
-105.334
0
LINE
8
BLACK
6
CONTINUOUS
10
140.538
20
-105.334
11
140.569
21
-105.373
0
LINE
8
BLACK
6
CONTINUOUS
10
140.569
20
-105.373
11
140.662
21
-105.487
0
LINE
8
BLACK
6
CONTINUOUS
10
140.662
20
-105.487
11
140.755
21
-105.66
0
LINE
8
BLACK
6
CONTINUOUS
10
140.755
20
-105.66
11
140.813
21
-105.849
0
LINE
8
BLACK
6
CONTINUOUS
10
140.813
20
-105.849
11
140.832
21
-106.045
0
LINE
8
BLACK
6
CONTINUOUS
10
140.832
20
-106.045
11
140.827
21
-106.094
0
LINE
8
BLACK
6
CONTINUOUS
10
140.827
20
-106.094
11
140.827
21
-110.314
0
LINE
8
BLACK
6
CONTINUOUS
10
140.827
20
-110.314
11
140.832
21
-110.363
0
LINE
8
BLACK
6
CONTINUOUS
10
140.832
20
-110.363
11
140.827
21
-110.412
0
LINE
8
BLACK
6
CONTINUOUS
10
140.827
20
-110.412
11
140.827
21
-110.412
0
LINE
8
BLACK
6
CONTINUOUS
10
140.827
20
-110.412
11
140.813
21
-110.559
0
LINE
8
BLACK
6
CONTINUOUS
10
140.813
20
-110.559
11
140.755
21
-110.748
0
LINE
8
BLACK
6
CONTINUOUS
10
140.755
20
-110.748
11
140.662
21
-110.921
0
LINE
8
BLACK
6
CONTINUOUS
10
140.662
20
-110.921
11
140.538
21
-111.074
0
LINE
8
BLACK
6
CONTINUOUS
10
140.538
20
-111.074
11
140.499
21
-111.105
0
LINE
8
BLACK
6
CONTINUOUS
10
140.499
20
-111.105
11
139.68
21
-111.924
0
LINE
8
BLACK
6
CONTINUOUS
10
139.68
20
-111.924
11
139.649
21
-111.963
0
LINE
8
BLACK
6
CONTINUOUS
10
139.649
20
-111.963
11
139.496
21
-112.087
0
LINE
8
BLACK
6
CONTINUOUS
10
139.496
20
-112.087
11
139.323
21
-112.18
0
LINE
8
BLACK
6
CONTINUOUS
10
139.323
20
-112.18
11
139.134
21
-112.238
0
LINE
8
BLACK
6
CONTINUOUS
10
139.134
20
-112.238
11
138.987
21
-112.252
0
LINE
8
BLACK
6
CONTINUOUS
10
138.987
20
-112.252
11
138.938
21
-112.257
0
LINE
8
BLACK
6
CONTINUOUS
10
138.938
20
-112.257
11
138.889
21
-112.252
0
LINE
8
BLACK
6
CONTINUOUS
10
138.889
20
-112.252
11
138.16
21
-112.252
0
LINE
8
BLACK
6
CONTINUOUS
10
138.16
20
-112.252
11
138.16
21
-115.14
0
LINE
8
BLACK
6
CONTINUOUS
10
138.16
20
-115.14
11
138.165
21
-115.189
0
LINE
8
BLACK
6
CONTINUOUS
10
138.165
20
-115.189
11
138.16
21
-115.238
0
LINE
8
BLACK
6
CONTINUOUS
10
138.16
20
-115.238
11
138.16
21
-115.238
0
LINE
8
BLACK
6
CONTINUOUS
10
138.16
20
-115.238
11
138.146
21
-115.385
0
LINE
8
BLACK
6
CONTINUOUS
10
138.146
20
-115.385
11
138.088
21
-115.574
0
LINE
8
BLACK
6
CONTINUOUS
10
138.088
20
-115.574
11
137.995
21
-115.747
0
LINE
8
BLACK
6
CONTINUOUS
10
137.995
20
-115.747
11
137.871
21
-115.9
0
LINE
8
BLACK
6
CONTINUOUS
10
137.871
20
-115.9
11
137.832
21
-115.931
0
LINE
8
BLACK
6
CONTINUOUS
10
137.832
20
-115.931
11
134.6
21
-119.163
0
LINE
8
BLACK
6
CONTINUOUS
10
134.6
20
-119.163
11
134.569
21
-119.202
0
LINE
8
BLACK
6
CONTINUOUS
10
134.569
20
-119.202
11
134.416
21
-119.326
0
LINE
8
BLACK
6
CONTINUOUS
10
134.416
20
-119.326
11
134.243
21
-119.419
0
LINE
8
BLACK
6
CONTINUOUS
10
134.243
20
-119.419
11
134.209
21
-119.43
0
LINE
8
BLACK
6
CONTINUOUS
10
134.209
20
-119.43
11
134.188
21
-119.456
0
LINE
8
BLACK
6
CONTINUOUS
10
134.188
20
-119.456
11
134.035
21
-119.58
0
LINE
8
BLACK
6
CONTINUOUS
10
134.035
20
-119.58
11
133.862
21
-119.673
0
LINE
8
BLACK
6
CONTINUOUS
10
133.862
20
-119.673
11
133.673
21
-119.731
0
LINE
8
BLACK
6
CONTINUOUS
10
133.673
20
-119.731
11
133.526
21
-119.745
0
LINE
8
BLACK
6
CONTINUOUS
10
133.526
20
-119.745
11
133.477
21
-119.75
0
LINE
8
BLACK
6
CONTINUOUS
10
133.477
20
-119.75
11
133.428
21
-119.745
0
LINE
8
BLACK
6
CONTINUOUS
10
133.428
20
-119.745
11
107.237
21
-119.745
0
LINE
8
BLACK
6
CONTINUOUS
10
107.237
20
-119.745
11
107.188
21
-119.75
0
LINE
8
BLACK
6
CONTINUOUS
10
107.188
20
-119.75
11
106.992
21
-119.731
0
LINE
8
BLACK
6
CONTINUOUS
10
106.992
20
-119.731
11
106.803
21
-119.673
0
LINE
8
BLACK
6
CONTINUOUS
10
106.803
20
-119.673
11
106.63
21
-119.58
0
LINE
8
BLACK
6
CONTINUOUS
10
106.63
20
-119.58
11
106.477
21
-119.456
0
LINE
8
BLACK
6
CONTINUOUS
10
106.477
20
-119.456
11
106.446
21
-119.417
0
LINE
8
BLACK
6
CONTINUOUS
10
106.446
20
-119.417
11
102.452
21
-115.423
0
LINE
8
BLACK
6
CONTINUOUS
10
102.452
20
-115.423
11
102.413
21
-115.392
0
LINE
8
BLACK
6
CONTINUOUS
10
102.413
20
-115.392
11
102.289
21
-115.239
0
LINE
8
BLACK
6
CONTINUOUS
10
102.289
20
-115.239
11
102.196
21
-115.066
0
LINE
8
BLACK
6
CONTINUOUS
10
102.196
20
-115.066
11
102.193
21
-115.056
0
LINE
8
BLACK
6
CONTINUOUS
10
102.193
20
-115.056
11
102.138
21
-114.877
0
LINE
8
BLACK
6
CONTINUOUS
10
102.138
20
-114.877
11
102.119
21
-114.681
0
LINE
8
BLACK
6
CONTINUOUS
10
102.119
20
-114.681
11
102.124
21
-114.632
0
LINE
8
BLACK
6
CONTINUOUS
10
102.124
20
-114.632
11
102.124
21
-105.615
0
LINE
8
BLACK
6
CONTINUOUS
10
102.124
20
-105.615
11
102.124
21
-92.6609
0
LINE
8
BLACK
6
CONTINUOUS
10
102.124
20
-92.6609
11
102.124
21
-92.6609
0
LINE
8
BLACK
6
CONTINUOUS
10
102.124
20
-92.6609
11
102.124
21
-81.7389
0
LINE
8
BLACK
6
CONTINUOUS
10
102.124
20
-81.7389
11
102.138
21
-81.592
0
LINE
8
BLACK
6
CONTINUOUS
10
102.138
20
-81.592
11
102.196
21
-81.4035
0
LINE
8
BLACK
6
CONTINUOUS
10
102.196
20
-81.4035
11
102.289
21
-81.2297
0
LINE
8
BLACK
6
CONTINUOUS
10
102.289
20
-81.2297
11
102.413
21
-81.0775
0
LINE
8
BLACK
6
CONTINUOUS
10
102.413
20
-81.0775
11
102.566
21
-80.9525
0
LINE
8
BLACK
6
CONTINUOUS
10
102.566
20
-80.9525
11
102.739
21
-80.8597
0
LINE
8
BLACK
6
CONTINUOUS
10
102.739
20
-80.8597
11
102.928
21
-80.8025
0
LINE
8
BLACK
6
CONTINUOUS
10
102.928
20
-80.8025
11
103.124
21
-80.7832
0
LINE
8
BLACK
6
CONTINUOUS
10
103.124
20
-80.7832
11
103.32
21
-80.8025
0
LINE
8
BLACK
6
CONTINUOUS
10
103.32
20
-80.8025
11
103.509
21
-80.8597
0
LINE
8
BLACK
6
CONTINUOUS
10
103.509
20
-80.8597
11
103.682
21
-80.9525
0
LINE
8
BLACK
6
CONTINUOUS
10
103.682
20
-80.9525
11
103.835
21
-81.0775
0
LINE
8
BLACK
6
CONTINUOUS
10
103.835
20
-81.0775
11
103.959
21
-81.2297
0
LINE
8
BLACK
6
CONTINUOUS
10
103.959
20
-81.2297
11
104.052
21
-81.4035
0
LINE
8
BLACK
6
CONTINUOUS
10
104.052
20
-81.4035
11
104.11
21
-81.592
0
LINE
8
BLACK
6
CONTINUOUS
10
104.11
20
-81.592
11
104.124
21
-81.7389
0
LINE
8
BLACK
6
CONTINUOUS
10
104.124
20
-81.7389
11
104.124
21
-83.309
0
LINE
8
BLACK
6
CONTINUOUS
10
104.124
20
-83.309
11
104.793
21
-83.978
0
LINE
8
BLACK
6
CONTINUOUS
10
104.793
20
-83.978
11
106.916
21
-83.978
0
LINE
8
BLACK
6
CONTINUOUS
10
106.916
20
-83.978
11
108.325
21
-82.5687
0
LINE
8
BLACK
6
CONTINUOUS
10
108.325
20
-82.5687
11
108.336
21
-82.5553
0
LINE
8
BLACK
6
CONTINUOUS
10
108.336
20
-82.5553
11
108.39
21
-82.5116
0
LINE
8
BLACK
6
CONTINUOUS
10
108.39
20
-82.5116
11
108.45
21
-82.4791
0
LINE
8
BLACK
6
CONTINUOUS
10
108.45
20
-82.4791
11
108.516
21
-82.4591
0
LINE
8
BLACK
6
CONTINUOUS
10
108.516
20
-82.4591
11
108.568
21
-82.454
0
LINE
8
BLACK
6
CONTINUOUS
10
108.568
20
-82.454
11
108.568
21
-82.454
0
LINE
8
BLACK
6
CONTINUOUS
10
108.568
20
-82.454
11
108.585
21
-82.4523
0
LINE
8
BLACK
6
CONTINUOUS
10
108.585
20
-82.4523
11
108.602
21
-82.454
0
LINE
8
BLACK
6
CONTINUOUS
10
108.602
20
-82.454
11
111.327
21
-82.454
0
LINE
8
BLACK
6
CONTINUOUS
10
111.327
20
-82.454
11
111.379
21
-82.4591
0
LINE
8
BLACK
6
CONTINUOUS
10
111.379
20
-82.4591
11
111.445
21
-82.4791
0
LINE
8
BLACK
6
CONTINUOUS
10
111.445
20
-82.4791
11
111.491
21
-82.504
0
LINE
8
BLACK
6
CONTINUOUS
10
111.491
20
-82.504
11
111.51
21
-82.504
0
LINE
8
BLACK
6
CONTINUOUS
10
111.51
20
-82.504
11
111.51
21
-82.5154
0
LINE
8
BLACK
6
CONTINUOUS
10
111.51
20
-82.5154
11
111.559
21
-82.5553
0
LINE
8
BLACK
6
CONTINUOUS
10
111.559
20
-82.5553
11
111.602
21
-82.6086
0
LINE
8
BLACK
6
CONTINUOUS
10
111.602
20
-82.6086
11
111.635
21
-82.6694
0
LINE
8
BLACK
6
CONTINUOUS
10
111.635
20
-82.6694
11
111.655
21
-82.7354
0
LINE
8
BLACK
6
CONTINUOUS
10
111.655
20
-82.7354
11
111.662
21
-82.804
0
LINE
8
BLACK
6
CONTINUOUS
10
111.662
20
-82.804
11
111.655
21
-82.8726
0
LINE
8
BLACK
6
CONTINUOUS
10
111.655
20
-82.8726
11
111.635
21
-82.9386
0
LINE
8
BLACK
6
CONTINUOUS
10
111.635
20
-82.9386
11
111.602
21
-82.9994
0
LINE
8
BLACK
6
CONTINUOUS
10
111.602
20
-82.9994
11
111.559
21
-83.0527
0
LINE
8
BLACK
6
CONTINUOUS
10
111.559
20
-83.0527
11
111.51
21
-83.0926
0
LINE
8
BLACK
6
CONTINUOUS
10
111.51
20
-83.0926
11
111.51
21
-83.104
0
LINE
8
BLACK
6
CONTINUOUS
10
111.51
20
-83.104
11
111.491
21
-83.104
0
LINE
8
BLACK
6
CONTINUOUS
10
111.491
20
-83.104
11
111.445
21
-83.1289
0
LINE
8
BLACK
6
CONTINUOUS
10
111.445
20
-83.1289
11
111.379
21
-83.1489
0
LINE
8
BLACK
6
CONTINUOUS
10
111.379
20
-83.1489
11
111.327
21
-83.154
0
LINE
8
BLACK
6
CONTINUOUS
10
111.327
20
-83.154
11
108.73
21
-83.154
0
LINE
8
BLACK
6
CONTINUOUS
10
108.73
20
-83.154
11
107.321
21
-84.5633
0
LINE
8
BLACK
6
CONTINUOUS
10
107.321
20
-84.5633
11
107.31
21
-84.5767
0
LINE
8
BLACK
6
CONTINUOUS
10
107.31
20
-84.5767
11
107.256
21
-84.6204
0
LINE
8
BLACK
6
CONTINUOUS
10
107.256
20
-84.6204
11
107.196
21
-84.6529
0
LINE
8
BLACK
6
CONTINUOUS
10
107.196
20
-84.6529
11
107.13
21
-84.6729
0
LINE
8
BLACK
6
CONTINUOUS
10
107.13
20
-84.6729
11
107.078
21
-84.678
0
LINE
8
BLACK
6
CONTINUOUS
10
107.078
20
-84.678
11
107.078
21
-84.678
0
LINE
8
BLACK
6
CONTINUOUS
10
107.078
20
-84.678
11
107.061
21
-84.6797
0
LINE
8
BLACK
6
CONTINUOUS
10
107.061
20
-84.6797
11
107.044
21
-84.678
0
LINE
8
BLACK
6
CONTINUOUS
10
107.044
20
-84.678
11
104.665
21
-84.678
0
LINE
8
BLACK
6
CONTINUOUS
10
104.665
20
-84.678
11
104.648
21
-84.6797
0
LINE
8
BLACK
6
CONTINUOUS
10
104.648
20
-84.6797
11
104.631
21
-84.678
0
LINE
8
BLACK
6
CONTINUOUS
10
104.631
20
-84.678
11
104.631
21
-84.678
0
LINE
8
BLACK
6
CONTINUOUS
10
104.631
20
-84.678
11
104.579
21
-84.6729
0
LINE
8
BLACK
6
CONTINUOUS
10
104.579
20
-84.6729
11
104.513
21
-84.6529
0
LINE
8
BLACK
6
CONTINUOUS
10
104.513
20
-84.6529
11
104.453
21
-84.6204
0
LINE
8
BLACK
6
CONTINUOUS
10
104.453
20
-84.6204
11
104.399
21
-84.5767
0
LINE
8
BLACK
6
CONTINUOUS
10
104.399
20
-84.5767
11
104.388
21
-84.5633
0
LINE
8
BLACK
6
CONTINUOUS
10
104.388
20
-84.5633
11
104.124
21
-84.299
0
LINE
8
BLACK
6
CONTINUOUS
10
104.124
20
-84.299
11
104.124
21
-93.469
0
LINE
8
BLACK
6
CONTINUOUS
10
104.124
20
-93.469
11
105.555
21
-94.9
0
LINE
8
BLACK
6
CONTINUOUS
10
138.01
20
-109.562
11
136.31
21
-109.562
0
LINE
8
BLACK
6
CONTINUOUS
10
136.31
20
-109.562
11
136.31
21
-109.212
0
LINE
8
BLACK
6
CONTINUOUS
10
136.31
20
-109.212
11
135.335
21
-109.212
0
LINE
8
BLACK
6
CONTINUOUS
10
135.335
20
-109.212
11
132.58
21
-111.967
0
LINE
8
BLACK
6
CONTINUOUS
10
132.58
20
-111.967
11
132.58
21
-112.836
0
LINE
8
BLACK
6
CONTINUOUS
10
132.58
20
-112.836
11
133.68
21
-112.836
0
LINE
8
BLACK
6
CONTINUOUS
10
133.68
20
-112.836
11
133.68
21
-113.836
0
LINE
8
BLACK
6
CONTINUOUS
10
133.68
20
-113.836
11
132.58
21
-113.836
0
LINE
8
BLACK
6
CONTINUOUS
10
132.58
20
-113.836
11
132.58
21
-114.529
0
LINE
8
BLACK
6
CONTINUOUS
10
132.58
20
-114.529
11
132.582
21
-114.554
0
LINE
8
BLACK
6
CONTINUOUS
10
132.582
20
-114.554
11
132.58
21
-114.579
0
LINE
8
BLACK
6
CONTINUOUS
10
132.58
20
-114.579
11
132.58
21
-114.579
0
LINE
8
BLACK
6
CONTINUOUS
10
132.58
20
-114.579
11
132.573
21
-114.652
0
LINE
8
BLACK
6
CONTINUOUS
10
132.573
20
-114.652
11
132.544
21
-114.746
0
LINE
8
BLACK
6
CONTINUOUS
10
132.544
20
-114.746
11
132.498
21
-114.833
0
LINE
8
BLACK
6
CONTINUOUS
10
132.498
20
-114.833
11
132.435
21
-114.909
0
LINE
8
BLACK
6
CONTINUOUS
10
132.435
20
-114.909
11
132.416
21
-114.925
0
LINE
8
BLACK
6
CONTINUOUS
10
132.416
20
-114.925
11
130.546
21
-116.795
0
LINE
8
BLACK
6
CONTINUOUS
10
130.546
20
-116.795
11
130.53
21
-116.814
0
LINE
8
BLACK
6
CONTINUOUS
10
130.53
20
-116.814
11
130.454
21
-116.877
0
LINE
8
BLACK
6
CONTINUOUS
10
130.454
20
-116.877
11
130.367
21
-116.923
0
LINE
8
BLACK
6
CONTINUOUS
10
130.367
20
-116.923
11
130.273
21
-116.952
0
LINE
8
BLACK
6
CONTINUOUS
10
130.273
20
-116.952
11
130.2
21
-116.959
0
LINE
8
BLACK
6
CONTINUOUS
10
130.2
20
-116.959
11
130.175
21
-116.961
0
LINE
8
BLACK
6
CONTINUOUS
10
130.175
20
-116.961
11
130.15
21
-116.959
0
LINE
8
BLACK
6
CONTINUOUS
10
130.15
20
-116.959
11
119.405
21
-116.959
0
LINE
8
BLACK
6
CONTINUOUS
10
119.405
20
-116.959
11
119.38
21
-116.961
0
LINE
8
BLACK
6
CONTINUOUS
10
119.38
20
-116.961
11
119.282
21
-116.952
0
LINE
8
BLACK
6
CONTINUOUS
10
119.282
20
-116.952
11
119.188
21
-116.923
0
LINE
8
BLACK
6
CONTINUOUS
10
119.188
20
-116.923
11
119.101
21
-116.877
0
LINE
8
BLACK
6
CONTINUOUS
10
119.101
20
-116.877
11
119.025
21
-116.814
0
LINE
8
BLACK
6
CONTINUOUS
10
119.025
20
-116.814
11
119.009
21
-116.795
0
LINE
8
BLACK
6
CONTINUOUS
10
119.009
20
-116.795
11
115.54
21
-113.326
0
LINE
8
BLACK
6
CONTINUOUS
10
115.54
20
-113.326
11
113.337
21
-113.326
0
LINE
8
BLACK
6
CONTINUOUS
10
113.337
20
-113.326
11
113.337
21
-112.226
0
LINE
8
BLACK
6
CONTINUOUS
10
113.337
20
-112.226
11
117.937
21
-112.226
0
LINE
8
BLACK
6
CONTINUOUS
10
117.937
20
-112.226
11
117.937
21
-113.326
0
LINE
8
BLACK
6
CONTINUOUS
10
117.937
20
-113.326
11
116.954
21
-113.326
0
LINE
8
BLACK
6
CONTINUOUS
10
116.954
20
-113.326
11
119.587
21
-115.959
0
LINE
8
BLACK
6
CONTINUOUS
10
119.587
20
-115.959
11
129.968
21
-115.959
0
LINE
8
BLACK
6
CONTINUOUS
10
129.968
20
-115.959
11
131.58
21
-114.347
0
LINE
8
BLACK
6
CONTINUOUS
10
131.58
20
-114.347
11
131.58
21
-113.836
0
LINE
8
BLACK
6
CONTINUOUS
10
131.58
20
-113.836
11
130.48
21
-113.836
0
LINE
8
BLACK
6
CONTINUOUS
10
130.48
20
-113.836
11
130.48
21
-112.836
0
LINE
8
BLACK
6
CONTINUOUS
10
130.48
20
-112.836
11
131.58
21
-112.836
0
LINE
8
BLACK
6
CONTINUOUS
10
131.58
20
-112.836
11
131.58
21
-111.785
0
LINE
8
BLACK
6
CONTINUOUS
10
131.58
20
-111.785
11
131.578
21
-111.76
0
LINE
8
BLACK
6
CONTINUOUS
10
131.578
20
-111.76
11
131.587
21
-111.662
0
LINE
8
BLACK
6
CONTINUOUS
10
131.587
20
-111.662
11
131.616
21
-111.568
0
LINE
8
BLACK
6
CONTINUOUS
10
131.616
20
-111.568
11
131.662
21
-111.481
0
LINE
8
BLACK
6
CONTINUOUS
10
131.662
20
-111.481
11
131.725
21
-111.405
0
LINE
8
BLACK
6
CONTINUOUS
10
131.725
20
-111.405
11
131.744
21
-111.389
0
LINE
8
BLACK
6
CONTINUOUS
10
131.744
20
-111.389
11
134.757
21
-108.376
0
LINE
8
BLACK
6
CONTINUOUS
10
134.757
20
-108.376
11
134.773
21
-108.357
0
LINE
8
BLACK
6
CONTINUOUS
10
134.773
20
-108.357
11
134.849
21
-108.294
0
LINE
8
BLACK
6
CONTINUOUS
10
134.849
20
-108.294
11
134.936
21
-108.248
0
LINE
8
BLACK
6
CONTINUOUS
10
134.936
20
-108.248
11
135.03
21
-108.219
0
LINE
8
BLACK
6
CONTINUOUS
10
135.03
20
-108.219
11
135.103
21
-108.212
0
LINE
8
BLACK
6
CONTINUOUS
10
135.103
20
-108.212
11
135.128
21
-108.21
0
LINE
8
BLACK
6
CONTINUOUS
10
135.128
20
-108.21
11
135.153
21
-108.212
0
LINE
8
BLACK
6
CONTINUOUS
10
135.153
20
-108.212
11
136.31
21
-108.212
0
LINE
8
BLACK
6
CONTINUOUS
10
136.31
20
-108.212
11
136.31
21
-107.862
0
LINE
8
BLACK
6
CONTINUOUS
10
136.31
20
-107.862
11
138.01
21
-107.862
0
LINE
8
BLACK
6
CONTINUOUS
10
138.01
20
-107.862
11
138.01
21
-109.562
0
LINE
8
BLACK
6
CONTINUOUS
10
117.937
20
-108.246
11
113.949
21
-108.246
0
LINE
8
BLACK
6
CONTINUOUS
10
113.949
20
-108.246
11
112.006
21
-110.189
0
LINE
8
BLACK
6
CONTINUOUS
10
112.006
20
-110.189
11
112.006
21
-112.29
0
LINE
8
BLACK
6
CONTINUOUS
10
112.006
20
-112.29
11
112.064
21
-112.322
0
LINE
8
BLACK
6
CONTINUOUS
10
112.064
20
-112.322
11
112.217
21
-112.446
0
LINE
8
BLACK
6
CONTINUOUS
10
112.217
20
-112.446
11
112.341
21
-112.599
0
LINE
8
BLACK
6
CONTINUOUS
10
112.341
20
-112.599
11
112.434
21
-112.772
0
LINE
8
BLACK
6
CONTINUOUS
10
112.434
20
-112.772
11
112.446
21
-112.809
0
LINE
8
BLACK
6
CONTINUOUS
10
112.446
20
-112.809
11
114.153
21
-114.517
0
LINE
8
BLACK
6
CONTINUOUS
10
114.153
20
-114.517
11
114.246
21
-114.631
0
LINE
8
BLACK
6
CONTINUOUS
10
114.246
20
-114.631
11
114.339
21
-114.804
0
LINE
8
BLACK
6
CONTINUOUS
10
114.339
20
-114.804
11
114.397
21
-114.993
0
LINE
8
BLACK
6
CONTINUOUS
10
114.397
20
-114.993
11
114.416
21
-115.189
0
LINE
8
BLACK
6
CONTINUOUS
10
114.416
20
-115.189
11
114.397
21
-115.385
0
LINE
8
BLACK
6
CONTINUOUS
10
114.397
20
-115.385
11
114.339
21
-115.574
0
LINE
8
BLACK
6
CONTINUOUS
10
114.339
20
-115.574
11
114.246
21
-115.747
0
LINE
8
BLACK
6
CONTINUOUS
10
114.246
20
-115.747
11
114.122
21
-115.9
0
LINE
8
BLACK
6
CONTINUOUS
10
114.122
20
-115.9
11
113.969
21
-116.024
0
LINE
8
BLACK
6
CONTINUOUS
10
113.969
20
-116.024
11
113.796
21
-116.117
0
LINE
8
BLACK
6
CONTINUOUS
10
113.796
20
-116.117
11
113.607
21
-116.175
0
LINE
8
BLACK
6
CONTINUOUS
10
113.607
20
-116.175
11
113.411
21
-116.194
0
LINE
8
BLACK
6
CONTINUOUS
10
113.411
20
-116.194
11
113.215
21
-116.175
0
LINE
8
BLACK
6
CONTINUOUS
10
113.215
20
-116.175
11
113.026
21
-116.117
0
LINE
8
BLACK
6
CONTINUOUS
10
113.026
20
-116.117
11
112.853
21
-116.024
0
LINE
8
BLACK
6
CONTINUOUS
10
112.853
20
-116.024
11
112.739
21
-115.931
0
LINE
8
BLACK
6
CONTINUOUS
10
112.739
20
-115.931
11
110.834
21
-114.026
0
LINE
8
BLACK
6
CONTINUOUS
10
110.834
20
-114.026
11
110.795
21
-113.995
0
LINE
8
BLACK
6
CONTINUOUS
10
110.795
20
-113.995
11
110.671
21
-113.842
0
LINE
8
BLACK
6
CONTINUOUS
10
110.671
20
-113.842
11
110.578
21
-113.669
0
LINE
8
BLACK
6
CONTINUOUS
10
110.578
20
-113.669
11
110.52
21
-113.48
0
LINE
8
BLACK
6
CONTINUOUS
10
110.52
20
-113.48
11
110.506
21
-113.333
0
LINE
8
BLACK
6
CONTINUOUS
10
110.506
20
-113.333
11
110.506
21
-113.333
0
LINE
8
BLACK
6
CONTINUOUS
10
110.506
20
-113.333
11
110.501
21
-113.284
0
LINE
8
BLACK
6
CONTINUOUS
10
110.501
20
-113.284
11
110.506
21
-113.235
0
LINE
8
BLACK
6
CONTINUOUS
10
110.506
20
-113.235
11
110.506
21
-113.108
0
LINE
8
BLACK
6
CONTINUOUS
10
110.506
20
-113.108
11
110.52
21
-112.961
0
LINE
8
BLACK
6
CONTINUOUS
10
110.52
20
-112.961
11
110.578
21
-112.772
0
LINE
8
BLACK
6
CONTINUOUS
10
110.578
20
-112.772
11
110.671
21
-112.599
0
LINE
8
BLACK
6
CONTINUOUS
10
110.671
20
-112.599
11
110.795
21
-112.446
0
LINE
8
BLACK
6
CONTINUOUS
10
110.795
20
-112.446
11
110.948
21
-112.322
0
LINE
8
BLACK
6
CONTINUOUS
10
110.948
20
-112.322
11
111.006
21
-112.29
0
LINE
8
BLACK
6
CONTINUOUS
10
111.006
20
-112.29
11
111.006
21
-110.007
0
LINE
8
BLACK
6
CONTINUOUS
10
111.006
20
-110.007
11
111.004
21
-109.982
0
LINE
8
BLACK
6
CONTINUOUS
10
111.004
20
-109.982
11
111.013
21
-109.884
0
LINE
8
BLACK
6
CONTINUOUS
10
111.013
20
-109.884
11
111.033
21
-109.818
0
LINE
8
BLACK
6
CONTINUOUS
10
111.033
20
-109.818
11
111.042
21
-109.79
0
LINE
8
BLACK
6
CONTINUOUS
10
111.042
20
-109.79
11
111.088
21
-109.703
0
LINE
8
BLACK
6
CONTINUOUS
10
111.088
20
-109.703
11
111.151
21
-109.627
0
LINE
8
BLACK
6
CONTINUOUS
10
111.151
20
-109.627
11
111.17
21
-109.611
0
LINE
8
BLACK
6
CONTINUOUS
10
111.17
20
-109.611
11
112.735
21
-108.046
0
LINE
8
BLACK
6
CONTINUOUS
10
112.735
20
-108.046
11
112.193
21
-108.046
0
LINE
8
BLACK
6
CONTINUOUS
10
112.193
20
-108.046
11
112.141
21
-108.041
0
LINE
8
BLACK
6
CONTINUOUS
10
112.141
20
-108.041
11
112.075
21
-108.021
0
LINE
8
BLACK
6
CONTINUOUS
10
112.075
20
-108.021
11
112.029
21
-107.996
0
LINE
8
BLACK
6
CONTINUOUS
10
112.029
20
-107.996
11
112.01
21
-107.996
0
LINE
8
BLACK
6
CONTINUOUS
10
112.01
20
-107.996
11
112.01
21
-107.985
0
LINE
8
BLACK
6
CONTINUOUS
10
112.01
20
-107.985
11
111.961
21
-107.945
0
LINE
8
BLACK
6
CONTINUOUS
10
111.961
20
-107.945
11
111.918
21
-107.891
0
LINE
8
BLACK
6
CONTINUOUS
10
111.918
20
-107.891
11
111.885
21
-107.831
0
LINE
8
BLACK
6
CONTINUOUS
10
111.885
20
-107.831
11
111.865
21
-107.765
0
LINE
8
BLACK
6
CONTINUOUS
10
111.865
20
-107.765
11
111.858
21
-107.696
0
LINE
8
BLACK
6
CONTINUOUS
10
111.858
20
-107.696
11
111.865
21
-107.627
0
LINE
8
BLACK
6
CONTINUOUS
10
111.865
20
-107.627
11
111.885
21
-107.561
0
LINE
8
BLACK
6
CONTINUOUS
10
111.885
20
-107.561
11
111.918
21
-107.501
0
LINE
8
BLACK
6
CONTINUOUS
10
111.918
20
-107.501
11
111.961
21
-107.447
0
LINE
8
BLACK
6
CONTINUOUS
10
111.961
20
-107.447
11
112.01
21
-107.407
0
LINE
8
BLACK
6
CONTINUOUS
10
112.01
20
-107.407
11
112.01
21
-107.396
0
LINE
8
BLACK
6
CONTINUOUS
10
112.01
20
-107.396
11
112.029
21
-107.396
0
LINE
8
BLACK
6
CONTINUOUS
10
112.029
20
-107.396
11
112.075
21
-107.371
0
LINE
8
BLACK
6
CONTINUOUS
10
112.075
20
-107.371
11
112.141
21
-107.351
0
LINE
8
BLACK
6
CONTINUOUS
10
112.141
20
-107.351
11
112.193
21
-107.346
0
LINE
8
BLACK
6
CONTINUOUS
10
112.193
20
-107.346
11
113.337
21
-107.346
0
LINE
8
BLACK
6
CONTINUOUS
10
113.337
20
-107.346
11
113.337
21
-107.146
0
LINE
8
BLACK
6
CONTINUOUS
10
113.337
20
-107.146
11
117.937
21
-107.146
0
LINE
8
BLACK
6
CONTINUOUS
10
117.937
20
-107.146
11
117.937
21
-108.246
0
LINE
8
BLACK
6
CONTINUOUS
10
120.087
20
-115.636
11
120.087
21
-110.736
0
LINE
8
BLACK
6
CONTINUOUS
10
120.087
20
-110.736
11
117.937
21
-110.736
0
LINE
8
BLACK
6
CONTINUOUS
10
117.937
20
-110.736
11
117.937
21
-110.786
0
LINE
8
BLACK
6
CONTINUOUS
10
117.937
20
-110.786
11
113.337
21
-110.786
0
LINE
8
BLACK
6
CONTINUOUS
10
113.337
20
-110.786
11
113.337
21
-109.686
0
LINE
8
BLACK
6
CONTINUOUS
10
113.337
20
-109.686
11
117.937
21
-109.686
0
LINE
8
BLACK
6
CONTINUOUS
10
117.937
20
-109.686
11
117.937
21
-109.736
0
LINE
8
BLACK
6
CONTINUOUS
10
117.937
20
-109.736
11
120.087
21
-109.736
0
LINE
8
BLACK
6
CONTINUOUS
10
120.087
20
-109.736
11
120.087
21
-104.836
0
LINE
8
BLACK
6
CONTINUOUS
10
120.087
20
-104.836
11
129.487
21
-104.836
0
LINE
8
BLACK
6
CONTINUOUS
10
129.487
20
-104.836
11
129.487
21
-106.136
0
LINE
8
BLACK
6
CONTINUOUS
10
129.487
20
-106.136
11
132.129
21
-106.136
0
LINE
8
BLACK
6
CONTINUOUS
10
132.129
20
-106.136
11
132.276
21
-106.15
0
LINE
8
BLACK
6
CONTINUOUS
10
132.276
20
-106.15
11
132.465
21
-106.208
0
LINE
8
BLACK
6
CONTINUOUS
10
132.465
20
-106.208
11
132.638
21
-106.301
0
LINE
8
BLACK
6
CONTINUOUS
10
132.638
20
-106.301
11
132.791
21
-106.425
0
LINE
8
BLACK
6
CONTINUOUS
10
132.791
20
-106.425
11
132.915
21
-106.578
0
LINE
8
BLACK
6
CONTINUOUS
10
132.915
20
-106.578
11
132.947
21
-106.636
0
LINE
8
BLACK
6
CONTINUOUS
10
132.947
20
-106.636
11
133.68
21
-106.636
0
LINE
8
BLACK
6
CONTINUOUS
10
133.68
20
-106.636
11
133.68
21
-107.636
0
LINE
8
BLACK
6
CONTINUOUS
10
133.68
20
-107.636
11
132.947
21
-107.636
0
LINE
8
BLACK
6
CONTINUOUS
10
132.947
20
-107.636
11
132.915
21
-107.694
0
LINE
8
BLACK
6
CONTINUOUS
10
132.915
20
-107.694
11
132.791
21
-107.847
0
LINE
8
BLACK
6
CONTINUOUS
10
132.791
20
-107.847
11
132.638
21
-107.971
0
LINE
8
BLACK
6
CONTINUOUS
10
132.638
20
-107.971
11
132.465
21
-108.064
0
LINE
8
BLACK
6
CONTINUOUS
10
132.465
20
-108.064
11
132.276
21
-108.122
0
LINE
8
BLACK
6
CONTINUOUS
10
132.276
20
-108.122
11
132.129
21
-108.136
0
LINE
8
BLACK
6
CONTINUOUS
10
132.129
20
-108.136
11
129.487
21
-108.136
0
LINE
8
BLACK
6
CONTINUOUS
10
129.487
20
-108.136
11
129.487
21
-115.636
0
LINE
8
BLACK
6
CONTINUOUS
10
129.487
20
-115.636
11
120.087
21
-115.636
0
LINE
8
BLACK
6
CONTINUOUS
10
94.1466
20
-106.858
11
94.3069
21
-106.907
0
LINE
8
BLACK
6
CONTINUOUS
10
94.3069
20
-106.907
11
94.4545
21
-106.986
0
LINE
8
BLACK
6
CONTINUOUS
10
94.4545
20
-106.986
11
94.5839
21
-107.092
0
LINE
8
BLACK
6
CONTINUOUS
10
94.5839
20
-107.092
11
94.6902
21
-107.221
0
LINE
8
BLACK
6
CONTINUOUS
10
94.6902
20
-107.221
11
94.7691
21
-107.369
0
LINE
8
BLACK
6
CONTINUOUS
10
94.7691
20
-107.369
11
94.8177
21
-107.529
0
LINE
8
BLACK
6
CONTINUOUS
10
94.8177
20
-107.529
11
94.8341
21
-107.696
0
LINE
8
BLACK
6
CONTINUOUS
10
94.8341
20
-107.696
11
94.8177
21
-107.863
0
LINE
8
BLACK
6
CONTINUOUS
10
94.8177
20
-107.863
11
94.7691
21
-108.023
0
LINE
8
BLACK
6
CONTINUOUS
10
94.7691
20
-108.023
11
94.6902
21
-108.171
0
LINE
8
BLACK
6
CONTINUOUS
10
94.6902
20
-108.171
11
94.5839
21
-108.3
0
LINE
8
BLACK
6
CONTINUOUS
10
94.5839
20
-108.3
11
94.4545
21
-108.406
0
LINE
8
BLACK
6
CONTINUOUS
10
94.4545
20
-108.406
11
94.3069
21
-108.485
0
LINE
8
BLACK
6
CONTINUOUS
10
94.3069
20
-108.485
11
94.1466
21
-108.534
0
LINE
8
BLACK
6
CONTINUOUS
10
94.1466
20
-108.534
11
94.0217
21
-108.546
0
LINE
8
BLACK
6
CONTINUOUS
10
94.0217
20
-108.546
11
93.9383
21
-108.546
0
LINE
8
BLACK
6
CONTINUOUS
10
93.9383
20
-108.546
11
93.8134
21
-108.534
0
LINE
8
BLACK
6
CONTINUOUS
10
93.8134
20
-108.534
11
93.6531
21
-108.485
0
LINE
8
BLACK
6
CONTINUOUS
10
93.6531
20
-108.485
11
93.5055
21
-108.406
0
LINE
8
BLACK
6
CONTINUOUS
10
93.5055
20
-108.406
11
93.3761
21
-108.3
0
LINE
8
BLACK
6
CONTINUOUS
10
93.3761
20
-108.3
11
93.2698
21
-108.171
0
LINE
8
BLACK
6
CONTINUOUS
10
93.2698
20
-108.171
11
93.1909
21
-108.023
0
LINE
8
BLACK
6
CONTINUOUS
10
93.1909
20
-108.023
11
93.1423
21
-107.863
0
LINE
8
BLACK
6
CONTINUOUS
10
93.1423
20
-107.863
11
93.1259
21
-107.696
0
LINE
8
BLACK
6
CONTINUOUS
10
93.1259
20
-107.696
11
93.1423
21
-107.529
0
LINE
8
BLACK
6
CONTINUOUS
10
93.1423
20
-107.529
11
93.1909
21
-107.369
0
LINE
8
BLACK
6
CONTINUOUS
10
93.1909
20
-107.369
11
93.2698
21
-107.221
0
LINE
8
BLACK
6
CONTINUOUS
10
93.2698
20
-107.221
11
93.3761
21
-107.092
0
LINE
8
BLACK
6
CONTINUOUS
10
93.3761
20
-107.092
11
93.5055
21
-106.986
0
LINE
8
BLACK
6
CONTINUOUS
10
93.5055
20
-106.986
11
93.6531
21
-106.907
0
LINE
8
BLACK
6
CONTINUOUS
10
93.6531
20
-106.907
11
93.8134
21
-106.858
0
LINE
8
BLACK
6
CONTINUOUS
10
93.8134
20
-106.858
11
93.9383
21
-106.846
0
LINE
8
BLACK
6
CONTINUOUS
10
93.9383
20
-106.846
11
94.0217
21
-106.846
0
LINE
8
BLACK
6
CONTINUOUS
10
94.0217
20
-106.846
11
94.1466
21
-106.858
0
LINE
8
BLACK
6
CONTINUOUS
10
94.83
20
-106.006
11
93.13
21
-106.006
0
LINE
8
BLACK
6
CONTINUOUS
10
93.13
20
-106.006
11
93.13
21
-104.306
0
LINE
8
BLACK
6
CONTINUOUS
10
93.13
20
-104.306
11
94.83
21
-104.306
0
LINE
8
BLACK
6
CONTINUOUS
10
94.83
20
-104.306
11
94.83
21
-106.006
0
LINE
8
BLACK
6
CONTINUOUS
10
132.582
20
-103.124
11
132.58
21
-103.149
0
LINE
8
BLACK
6
CONTINUOUS
10
132.58
20
-103.149
11
132.58
21
-103.149
0
LINE
8
BLACK
6
CONTINUOUS
10
132.58
20
-103.149
11
132.573
21
-103.222
0
LINE
8
BLACK
6
CONTINUOUS
10
132.573
20
-103.222
11
132.544
21
-103.316
0
LINE
8
BLACK
6
CONTINUOUS
10
132.544
20
-103.316
11
132.498
21
-103.403
0
LINE
8
BLACK
6
CONTINUOUS
10
132.498
20
-103.403
11
132.435
21
-103.479
0
LINE
8
BLACK
6
CONTINUOUS
10
132.435
20
-103.479
11
132.416
21
-103.495
0
LINE
8
BLACK
6
CONTINUOUS
10
132.416
20
-103.495
11
131.562
21
-104.349
0
LINE
8
BLACK
6
CONTINUOUS
10
131.562
20
-104.349
11
131.546
21
-104.368
0
LINE
8
BLACK
6
CONTINUOUS
10
131.546
20
-104.368
11
131.47
21
-104.431
0
LINE
8
BLACK
6
CONTINUOUS
10
131.47
20
-104.431
11
131.383
21
-104.477
0
LINE
8
BLACK
6
CONTINUOUS
10
131.383
20
-104.477
11
131.289
21
-104.506
0
LINE
8
BLACK
6
CONTINUOUS
10
131.289
20
-104.506
11
131.216
21
-104.513
0
LINE
8
BLACK
6
CONTINUOUS
10
131.216
20
-104.513
11
131.191
21
-104.515
0
LINE
8
BLACK
6
CONTINUOUS
10
131.191
20
-104.515
11
131.166
21
-104.513
0
LINE
8
BLACK
6
CONTINUOUS
10
131.166
20
-104.513
11
118.77
21
-104.513
0
LINE
8
BLACK
6
CONTINUOUS
10
118.77
20
-104.513
11
118.745
21
-104.515
0
LINE
8
BLACK
6
CONTINUOUS
10
118.745
20
-104.515
11
118.647
21
-104.506
0
LINE
8
BLACK
6
CONTINUOUS
10
118.647
20
-104.506
11
118.553
21
-104.477
0
LINE
8
BLACK
6
CONTINUOUS
10
118.553
20
-104.477
11
118.466
21
-104.431
0
LINE
8
BLACK
6
CONTINUOUS
10
118.466
20
-104.431
11
118.39
21
-104.368
0
LINE
8
BLACK
6
CONTINUOUS
10
118.39
20
-104.368
11
118.374
21
-104.349
0
LINE
8
BLACK
6
CONTINUOUS
10
118.374
20
-104.349
11
115.301
21
-101.276
0
LINE
8
BLACK
6
CONTINUOUS
10
115.301
20
-101.276
11
115.282
21
-101.26
0
LINE
8
BLACK
6
CONTINUOUS
10
115.282
20
-101.26
11
115.219
21
-101.184
0
LINE
8
BLACK
6
CONTINUOUS
10
115.219
20
-101.184
11
115.173
21
-101.097
0
LINE
8
BLACK
6
CONTINUOUS
10
115.173
20
-101.097
11
115.168
21
-101.082
0
LINE
8
BLACK
6
CONTINUOUS
10
115.168
20
-101.082
11
115.144
21
-101.003
0
LINE
8
BLACK
6
CONTINUOUS
10
115.144
20
-101.003
11
115.135
21
-100.905
0
LINE
8
BLACK
6
CONTINUOUS
10
115.135
20
-100.905
11
115.137
21
-100.88
0
LINE
8
BLACK
6
CONTINUOUS
10
115.137
20
-100.88
11
115.137
21
-100.88
0
LINE
8
BLACK
6
CONTINUOUS
10
115.137
20
-100.88
11
113.337
21
-100.88
0
LINE
8
BLACK
6
CONTINUOUS
10
113.337
20
-100.88
11
113.337
21
-99.78
0
LINE
8
BLACK
6
CONTINUOUS
10
113.337
20
-99.78
11
117.937
21
-99.78
0
LINE
8
BLACK
6
CONTINUOUS
10
117.937
20
-99.78
11
117.937
21
-100.88
0
LINE
8
BLACK
6
CONTINUOUS
10
117.937
20
-100.88
11
116.319
21
-100.88
0
LINE
8
BLACK
6
CONTINUOUS
10
116.319
20
-100.88
11
118.952
21
-103.513
0
LINE
8
BLACK
6
CONTINUOUS
10
118.952
20
-103.513
11
130.984
21
-103.513
0
LINE
8
BLACK
6
CONTINUOUS
10
130.984
20
-103.513
11
131.58
21
-102.917
0
LINE
8
BLACK
6
CONTINUOUS
10
131.58
20
-102.917
11
131.58
21
-102.514
0
LINE
8
BLACK
6
CONTINUOUS
10
131.58
20
-102.514
11
131.58
21
-102.514
0
LINE
8
BLACK
6
CONTINUOUS
10
131.58
20
-102.514
11
131.58
21
-101.39
0
LINE
8
BLACK
6
CONTINUOUS
10
131.58
20
-101.39
11
130.48
21
-101.39
0
LINE
8
BLACK
6
CONTINUOUS
10
130.48
20
-101.39
11
130.48
21
-100.39
0
LINE
8
BLACK
6
CONTINUOUS
10
130.48
20
-100.39
11
131.58
21
-100.39
0
LINE
8
BLACK
6
CONTINUOUS
10
131.58
20
-100.39
11
131.58
21
-99.0846
0
LINE
8
BLACK
6
CONTINUOUS
10
131.58
20
-99.0846
11
131.578
21
-99.06
0
LINE
8
BLACK
6
CONTINUOUS
10
131.578
20
-99.06
11
131.587
21
-98.962
0
LINE
8
BLACK
6
CONTINUOUS
10
131.587
20
-98.962
11
131.616
21
-98.8677
0
LINE
8
BLACK
6
CONTINUOUS
10
131.616
20
-98.8677
11
131.618
21
-98.864
0
LINE
8
BLACK
6
CONTINUOUS
10
131.618
20
-98.864
11
131.662
21
-98.7809
0
LINE
8
BLACK
6
CONTINUOUS
10
131.662
20
-98.7809
11
131.725
21
-98.7047
0
LINE
8
BLACK
6
CONTINUOUS
10
131.725
20
-98.7047
11
131.744
21
-98.6891
0
LINE
8
BLACK
6
CONTINUOUS
10
131.744
20
-98.6891
11
134.249
21
-96.1838
0
LINE
8
BLACK
6
CONTINUOUS
10
134.249
20
-96.1838
11
134.265
21
-96.1647
0
LINE
8
BLACK
6
CONTINUOUS
10
134.265
20
-96.1647
11
134.341
21
-96.1023
0
LINE
8
BLACK
6
CONTINUOUS
10
134.341
20
-96.1023
11
134.428
21
-96.0558
0
LINE
8
BLACK
6
CONTINUOUS
10
134.428
20
-96.0558
11
134.522
21
-96.0272
0
LINE
8
BLACK
6
CONTINUOUS
10
134.522
20
-96.0272
11
134.595
21
-96.02
0
LINE
8
BLACK
6
CONTINUOUS
10
134.595
20
-96.02
11
134.595
21
-96.02
0
LINE
8
BLACK
6
CONTINUOUS
10
134.595
20
-96.02
11
134.62
21
-96.0176
0
LINE
8
BLACK
6
CONTINUOUS
10
134.62
20
-96.0176
11
134.645
21
-96.02
0
LINE
8
BLACK
6
CONTINUOUS
10
134.645
20
-96.02
11
136.31
21
-96.02
0
LINE
8
BLACK
6
CONTINUOUS
10
136.31
20
-96.02
11
136.31
21
-95.67
0
LINE
8
BLACK
6
CONTINUOUS
10
136.31
20
-95.67
11
138.01
21
-95.67
0
LINE
8
BLACK
6
CONTINUOUS
10
138.01
20
-95.67
11
138.01
21
-97.37
0
LINE
8
BLACK
6
CONTINUOUS
10
138.01
20
-97.37
11
136.31
21
-97.37
0
LINE
8
BLACK
6
CONTINUOUS
10
136.31
20
-97.37
11
136.31
21
-97.02
0
LINE
8
BLACK
6
CONTINUOUS
10
136.31
20
-97.02
11
134.827
21
-97.02
0
LINE
8
BLACK
6
CONTINUOUS
10
134.827
20
-97.02
11
132.58
21
-99.2671
0
LINE
8
BLACK
6
CONTINUOUS
10
132.58
20
-99.2671
11
132.58
21
-100.39
0
LINE
8
BLACK
6
CONTINUOUS
10
132.58
20
-100.39
11
133.68
21
-100.39
0
LINE
8
BLACK
6
CONTINUOUS
10
133.68
20
-100.39
11
133.68
21
-101.39
0
LINE
8
BLACK
6
CONTINUOUS
10
133.68
20
-101.39
11
132.58
21
-101.39
0
LINE
8
BLACK
6
CONTINUOUS
10
132.58
20
-101.39
11
132.58
21
-103.099
0
LINE
8
BLACK
6
CONTINUOUS
10
132.58
20
-103.099
11
132.582
21
-103.124
0
LINE
8
BLACK
6
CONTINUOUS
10
117.937
20
-95.8
11
114.457
21
-95.8
0
LINE
8
BLACK
6
CONTINUOUS
10
114.457
20
-95.8
11
111.625
21
-98.6321
0
LINE
8
BLACK
6
CONTINUOUS
10
111.625
20
-98.6321
11
111.625
21
-100.098
0
LINE
8
BLACK
6
CONTINUOUS
10
111.625
20
-100.098
11
111.683
21
-100.13
0
LINE
8
BLACK
6
CONTINUOUS
10
111.683
20
-100.13
11
111.797
21
-100.223
0
LINE
8
BLACK
6
CONTINUOUS
10
111.797
20
-100.223
11
114.407
21
-102.833
0
LINE
8
BLACK
6
CONTINUOUS
10
114.407
20
-102.833
11
114.5
21
-102.947
0
LINE
8
BLACK
6
CONTINUOUS
10
114.5
20
-102.947
11
114.593
21
-103.12
0
LINE
8
BLACK
6
CONTINUOUS
10
114.593
20
-103.12
11
114.651
21
-103.309
0
LINE
8
BLACK
6
CONTINUOUS
10
114.651
20
-103.309
11
114.67
21
-103.505
0
LINE
8
BLACK
6
CONTINUOUS
10
114.67
20
-103.505
11
114.651
21
-103.701
0
LINE
8
BLACK
6
CONTINUOUS
10
114.651
20
-103.701
11
114.593
21
-103.89
0
LINE
8
BLACK
6
CONTINUOUS
10
114.593
20
-103.89
11
114.5
21
-104.063
0
LINE
8
BLACK
6
CONTINUOUS
10
114.5
20
-104.063
11
114.376
21
-104.216
0
LINE
8
BLACK
6
CONTINUOUS
10
114.376
20
-104.216
11
114.223
21
-104.34
0
LINE
8
BLACK
6
CONTINUOUS
10
114.223
20
-104.34
11
114.05
21
-104.433
0
LINE
8
BLACK
6
CONTINUOUS
10
114.05
20
-104.433
11
113.861
21
-104.491
0
LINE
8
BLACK
6
CONTINUOUS
10
113.861
20
-104.491
11
113.665
21
-104.51
0
LINE
8
BLACK
6
CONTINUOUS
10
113.665
20
-104.51
11
113.469
21
-104.491
0
LINE
8
BLACK
6
CONTINUOUS
10
113.469
20
-104.491
11
113.28
21
-104.433
0
LINE
8
BLACK
6
CONTINUOUS
10
113.28
20
-104.433
11
113.107
21
-104.34
0
LINE
8
BLACK
6
CONTINUOUS
10
113.107
20
-104.34
11
112.993
21
-104.247
0
LINE
8
BLACK
6
CONTINUOUS
10
112.993
20
-104.247
11
110.383
21
-101.637
0
LINE
8
BLACK
6
CONTINUOUS
10
110.383
20
-101.637
11
110.29
21
-101.523
0
LINE
8
BLACK
6
CONTINUOUS
10
110.29
20
-101.523
11
110.197
21
-101.35
0
LINE
8
BLACK
6
CONTINUOUS
10
110.197
20
-101.35
11
110.139
21
-101.161
0
LINE
8
BLACK
6
CONTINUOUS
10
110.139
20
-101.161
11
110.12
21
-100.965
0
LINE
8
BLACK
6
CONTINUOUS
10
110.12
20
-100.965
11
110.139
21
-100.769
0
LINE
8
BLACK
6
CONTINUOUS
10
110.139
20
-100.769
11
110.197
21
-100.58
0
LINE
8
BLACK
6
CONTINUOUS
10
110.197
20
-100.58
11
110.29
21
-100.407
0
LINE
8
BLACK
6
CONTINUOUS
10
110.29
20
-100.407
11
110.414
21
-100.254
0
LINE
8
BLACK
6
CONTINUOUS
10
110.414
20
-100.254
11
110.567
21
-100.13
0
LINE
8
BLACK
6
CONTINUOUS
10
110.567
20
-100.13
11
110.625
21
-100.098
0
LINE
8
BLACK
6
CONTINUOUS
10
110.625
20
-100.098
11
110.625
21
-98.4496
0
LINE
8
BLACK
6
CONTINUOUS
10
110.625
20
-98.4496
11
110.623
21
-98.425
0
LINE
8
BLACK
6
CONTINUOUS
10
110.623
20
-98.425
11
110.632
21
-98.327
0
LINE
8
BLACK
6
CONTINUOUS
10
110.632
20
-98.327
11
110.643
21
-98.29
0
LINE
8
BLACK
6
CONTINUOUS
10
110.643
20
-98.29
11
110.661
21
-98.2327
0
LINE
8
BLACK
6
CONTINUOUS
10
110.661
20
-98.2327
11
110.707
21
-98.1459
0
LINE
8
BLACK
6
CONTINUOUS
10
110.707
20
-98.1459
11
110.77
21
-98.0697
0
LINE
8
BLACK
6
CONTINUOUS
10
110.77
20
-98.0697
11
110.789
21
-98.0541
0
LINE
8
BLACK
6
CONTINUOUS
10
110.789
20
-98.0541
11
113.243
21
-95.6
0
LINE
8
BLACK
6
CONTINUOUS
10
113.243
20
-95.6
11
112.193
21
-95.6
0
LINE
8
BLACK
6
CONTINUOUS
10
112.193
20
-95.6
11
112.141
21
-95.5949
0
LINE
8
BLACK
6
CONTINUOUS
10
112.141
20
-95.5949
11
112.075
21
-95.5749
0
LINE
8
BLACK
6
CONTINUOUS
10
112.075
20
-95.5749
11
112.029
21
-95.55
0
LINE
8
BLACK
6
CONTINUOUS
10
112.029
20
-95.55
11
112.01
21
-95.55
0
LINE
8
BLACK
6
CONTINUOUS
10
112.01
20
-95.55
11
112.01
21
-95.5386
0
LINE
8
BLACK
6
CONTINUOUS
10
112.01
20
-95.5386
11
111.961
21
-95.4987
0
LINE
8
BLACK
6
CONTINUOUS
10
111.961
20
-95.4987
11
111.918
21
-95.4454
0
LINE
8
BLACK
6
CONTINUOUS
10
111.918
20
-95.4454
11
111.885
21
-95.3846
0
LINE
8
BLACK
6
CONTINUOUS
10
111.885
20
-95.3846
11
111.865
21
-95.3186
0
LINE
8
BLACK
6
CONTINUOUS
10
111.865
20
-95.3186
11
111.858
21
-95.25
0
LINE
8
BLACK
6
CONTINUOUS
10
111.858
20
-95.25
11
111.865
21
-95.1814
0
LINE
8
BLACK
6
CONTINUOUS
10
111.865
20
-95.1814
11
111.885
21
-95.1154
0
LINE
8
BLACK
6
CONTINUOUS
10
111.885
20
-95.1154
11
111.918
21
-95.0546
0
LINE
8
BLACK
6
CONTINUOUS
10
111.918
20
-95.0546
11
111.961
21
-95.0013
0
LINE
8
BLACK
6
CONTINUOUS
10
111.961
20
-95.0013
11
112.01
21
-94.9614
0
LINE
8
BLACK
6
CONTINUOUS
10
112.01
20
-94.9614
11
112.01
21
-94.95
0
LINE
8
BLACK
6
CONTINUOUS
10
112.01
20
-94.95
11
112.029
21
-94.95
0
LINE
8
BLACK
6
CONTINUOUS
10
112.029
20
-94.95
11
112.075
21
-94.9251
0
LINE
8
BLACK
6
CONTINUOUS
10
112.075
20
-94.9251
11
112.141
21
-94.9051
0
LINE
8
BLACK
6
CONTINUOUS
10
112.141
20
-94.9051
11
112.193
21
-94.9
0
LINE
8
BLACK
6
CONTINUOUS
10
112.193
20
-94.9
11
113.337
21
-94.9
0
LINE
8
BLACK
6
CONTINUOUS
10
113.337
20
-94.9
11
113.337
21
-94.7
0
LINE
8
BLACK
6
CONTINUOUS
10
113.337
20
-94.7
11
117.937
21
-94.7
0
LINE
8
BLACK
6
CONTINUOUS
10
117.937
20
-94.7
11
117.937
21
-95.8
0
LINE
8
BLACK
6
CONTINUOUS
10
120.087
20
-103.19
11
120.087
21
-98.29
0
LINE
8
BLACK
6
CONTINUOUS
10
120.087
20
-98.29
11
117.937
21
-98.29
0
LINE
8
BLACK
6
CONTINUOUS
10
117.937
20
-98.29
11
117.937
21
-98.34
0
LINE
8
BLACK
6
CONTINUOUS
10
117.937
20
-98.34
11
113.337
21
-98.34
0
LINE
8
BLACK
6
CONTINUOUS
10
113.337
20
-98.34
11
113.337
21
-97.24
0
LINE
8
BLACK
6
CONTINUOUS
10
113.337
20
-97.24
11
117.937
21
-97.24
0
LINE
8
BLACK
6
CONTINUOUS
10
117.937
20
-97.24
11
117.937
21
-97.29
0
LINE
8
BLACK
6
CONTINUOUS
10
117.937
20
-97.29
11
120.087
21
-97.29
0
LINE
8
BLACK
6
CONTINUOUS
10
120.087
20
-97.29
11
120.087
21
-92.39
0
LINE
8
BLACK
6
CONTINUOUS
10
120.087
20
-92.39
11
129.487
21
-92.39
0
LINE
8
BLACK
6
CONTINUOUS
10
129.487
20
-92.39
11
129.487
21
-93.69
0
LINE
8
BLACK
6
CONTINUOUS
10
129.487
20
-93.69
11
132.129
21
-93.69
0
LINE
8
BLACK
6
CONTINUOUS
10
132.129
20
-93.69
11
132.276
21
-93.7045
0
LINE
8
BLACK
6
CONTINUOUS
10
132.276
20
-93.7045
11
132.465
21
-93.7617
0
LINE
8
BLACK
6
CONTINUOUS
10
132.465
20
-93.7617
11
132.638
21
-93.8545
0
LINE
8
BLACK
6
CONTINUOUS
10
132.638
20
-93.8545
11
132.791
21
-93.9795
0
LINE
8
BLACK
6
CONTINUOUS
10
132.791
20
-93.9795
11
132.915
21
-94.1317
0
LINE
8
BLACK
6
CONTINUOUS
10
132.915
20
-94.1317
11
132.947
21
-94.19
0
LINE
8
BLACK
6
CONTINUOUS
10
132.947
20
-94.19
11
133.68
21
-94.19
0
LINE
8
BLACK
6
CONTINUOUS
10
133.68
20
-94.19
11
133.68
21
-95.19
0
LINE
8
BLACK
6
CONTINUOUS
10
133.68
20
-95.19
11
132.947
21
-95.19
0
LINE
8
BLACK
6
CONTINUOUS
10
132.947
20
-95.19
11
132.915
21
-95.2483
0
LINE
8
BLACK
6
CONTINUOUS
10
132.915
20
-95.2483
11
132.791
21
-95.4005
0
LINE
8
BLACK
6
CONTINUOUS
10
132.791
20
-95.4005
11
132.638
21
-95.5255
0
LINE
8
BLACK
6
CONTINUOUS
10
132.638
20
-95.5255
11
132.465
21
-95.6183
0
LINE
8
BLACK
6
CONTINUOUS
10
132.465
20
-95.6183
11
132.276
21
-95.6755
0
LINE
8
BLACK
6
CONTINUOUS
10
132.276
20
-95.6755
11
132.129
21
-95.69
0
LINE
8
BLACK
6
CONTINUOUS
10
132.129
20
-95.69
11
129.487
21
-95.69
0
LINE
8
BLACK
6
CONTINUOUS
10
129.487
20
-95.69
11
129.487
21
-103.19
0
LINE
8
BLACK
6
CONTINUOUS
10
129.487
20
-103.19
11
120.087
21
-103.19
0
LINE
8
BLACK
6
CONTINUOUS
10
94.1466
20
-96.6983
11
94.3069
21
-96.7469
0
LINE
8
BLACK
6
CONTINUOUS
10
94.3069
20
-96.7469
11
94.4545
21
-96.8258
0
LINE
8
BLACK
6
CONTINUOUS
10
94.4545
20
-96.8258
11
94.5839
21
-96.9321
0
LINE
8
BLACK
6
CONTINUOUS
10
94.5839
20
-96.9321
11
94.6902
21
-97.0615
0
LINE
8
BLACK
6
CONTINUOUS
10
94.6902
20
-97.0615
11
94.7691
21
-97.2091
0
LINE
8
BLACK
6
CONTINUOUS
10
94.7691
20
-97.2091
11
94.8177
21
-97.3694
0
LINE
8
BLACK
6
CONTINUOUS
10
94.8177
20
-97.3694
11
94.8341
21
-97.536
0
LINE
8
BLACK
6
CONTINUOUS
10
94.8341
20
-97.536
11
94.8177
21
-97.7026
0
LINE
8
BLACK
6
CONTINUOUS
10
94.8177
20
-97.7026
11
94.7691
21
-97.8629
0
LINE
8
BLACK
6
CONTINUOUS
10
94.7691
20
-97.8629
11
94.6902
21
-98.0105
0
LINE
8
BLACK
6
CONTINUOUS
10
94.6902
20
-98.0105
11
94.5839
21
-98.1399
0
LINE
8
BLACK
6
CONTINUOUS
10
94.5839
20
-98.1399
11
94.4545
21
-98.2462
0
LINE
8
BLACK
6
CONTINUOUS
10
94.4545
20
-98.2462
11
94.3069
21
-98.3251
0
LINE
8
BLACK
6
CONTINUOUS
10
94.3069
20
-98.3251
11
94.1466
21
-98.3737
0
LINE
8
BLACK
6
CONTINUOUS
10
94.1466
20
-98.3737
11
94.0217
21
-98.386
0
LINE
8
BLACK
6
CONTINUOUS
10
94.0217
20
-98.386
11
93.9383
21
-98.386
0
LINE
8
BLACK
6
CONTINUOUS
10
93.9383
20
-98.386
11
93.8134
21
-98.3737
0
LINE
8
BLACK
6
CONTINUOUS
10
93.8134
20
-98.3737
11
93.6531
21
-98.3251
0
LINE
8
BLACK
6
CONTINUOUS
10
93.6531
20
-98.3251
11
93.5055
21
-98.2462
0
LINE
8
BLACK
6
CONTINUOUS
10
93.5055
20
-98.2462
11
93.3761
21
-98.1399
0
LINE
8
BLACK
6
CONTINUOUS
10
93.3761
20
-98.1399
11
93.2698
21
-98.0105
0
LINE
8
BLACK
6
CONTINUOUS
10
93.2698
20
-98.0105
11
93.1909
21
-97.8629
0
LINE
8
BLACK
6
CONTINUOUS
10
93.1909
20
-97.8629
11
93.1423
21
-97.7026
0
LINE
8
BLACK
6
CONTINUOUS
10
93.1423
20
-97.7026
11
93.1259
21
-97.536
0
LINE
8
BLACK
6
CONTINUOUS
10
93.1259
20
-97.536
11
93.1423
21
-97.3694
0
LINE
8
BLACK
6
CONTINUOUS
10
93.1423
20
-97.3694
11
93.1909
21
-97.2091
0
LINE
8
BLACK
6
CONTINUOUS
10
93.1909
20
-97.2091
11
93.2698
21
-97.0615
0
LINE
8
BLACK
6
CONTINUOUS
10
93.2698
20
-97.0615
11
93.3761
21
-96.9321
0
LINE
8
BLACK
6
CONTINUOUS
10
93.3761
20
-96.9321
11
93.5055
21
-96.8258
0
LINE
8
BLACK
6
CONTINUOUS
10
93.5055
20
-96.8258
11
93.6531
21
-96.7469
0
LINE
8
BLACK
6
CONTINUOUS
10
93.6531
20
-96.7469
11
93.8134
21
-96.6983
0
LINE
8
BLACK
6
CONTINUOUS
10
93.8134
20
-96.6983
11
93.9383
21
-96.686
0
LINE
8
BLACK
6
CONTINUOUS
10
93.9383
20
-96.686
11
94.0217
21
-96.686
0
LINE
8
BLACK
6
CONTINUOUS
10
94.0217
20
-96.686
11
94.1466
21
-96.6983
0
LINE
8
BLACK
6
CONTINUOUS
10
94.83
20
-95.846
11
93.13
21
-95.846
0
LINE
8
BLACK
6
CONTINUOUS
10
93.13
20
-95.846
11
93.13
21
-94.146
0
LINE
8
BLACK
6
CONTINUOUS
10
93.13
20
-94.146
11
94.83
21
-94.146
0
LINE
8
BLACK
6
CONTINUOUS
10
94.83
20
-94.146
11
94.83
21
-95.846
0
LINE
8
BLACK
6
CONTINUOUS
10
138.01
20
-85.178
11
136.31
21
-85.178
0
LINE
8
BLACK
6
CONTINUOUS
10
136.31
20
-85.178
11
136.31
21
-84.828
0
LINE
8
BLACK
6
CONTINUOUS
10
136.31
20
-84.828
11
134.954
21
-84.828
0
LINE
8
BLACK
6
CONTINUOUS
10
134.954
20
-84.828
11
132.326
21
-87.4561
0
LINE
8
BLACK
6
CONTINUOUS
10
132.326
20
-87.4561
11
132.326
21
-88.071
0
LINE
8
BLACK
6
CONTINUOUS
10
132.326
20
-88.071
11
133.426
21
-88.071
0
LINE
8
BLACK
6
CONTINUOUS
10
133.426
20
-88.071
11
133.426
21
-89.071
0
LINE
8
BLACK
6
CONTINUOUS
10
133.426
20
-89.071
11
132.326
21
-89.071
0
LINE
8
BLACK
6
CONTINUOUS
10
132.326
20
-89.071
11
132.326
21
-90.5264
0
LINE
8
BLACK
6
CONTINUOUS
10
132.326
20
-90.5264
11
132.328
21
-90.551
0
LINE
8
BLACK
6
CONTINUOUS
10
132.328
20
-90.551
11
132.326
21
-90.5756
0
LINE
8
BLACK
6
CONTINUOUS
10
132.326
20
-90.5756
11
132.326
21
-90.5756
0
LINE
8
BLACK
6
CONTINUOUS
10
132.326
20
-90.5756
11
132.319
21
-90.649
0
LINE
8
BLACK
6
CONTINUOUS
10
132.319
20
-90.649
11
132.29
21
-90.7433
0
LINE
8
BLACK
6
CONTINUOUS
10
132.29
20
-90.7433
11
132.244
21
-90.8301
0
LINE
8
BLACK
6
CONTINUOUS
10
132.244
20
-90.8301
11
132.181
21
-90.9063
0
LINE
8
BLACK
6
CONTINUOUS
10
132.181
20
-90.9063
11
132.162
21
-90.9219
0
LINE
8
BLACK
6
CONTINUOUS
10
132.162
20
-90.9219
11
131.181
21
-91.9032
0
LINE
8
BLACK
6
CONTINUOUS
10
131.181
20
-91.9032
11
131.165
21
-91.9223
0
LINE
8
BLACK
6
CONTINUOUS
10
131.165
20
-91.9223
11
131.089
21
-91.9847
0
LINE
8
BLACK
6
CONTINUOUS
10
131.089
20
-91.9847
11
131.002
21
-92.0312
0
LINE
8
BLACK
6
CONTINUOUS
10
131.002
20
-92.0312
11
130.908
21
-92.0598
0
LINE
8
BLACK
6
CONTINUOUS
10
130.908
20
-92.0598
11
130.835
21
-92.067
0
LINE
8
BLACK
6
CONTINUOUS
10
130.835
20
-92.067
11
130.81
21
-92.0694
0
LINE
8
BLACK
6
CONTINUOUS
10
130.81
20
-92.0694
11
130.785
21
-92.067
0
LINE
8
BLACK
6
CONTINUOUS
10
130.785
20
-92.067
11
117.754
21
-92.067
0
LINE
8
BLACK
6
CONTINUOUS
10
117.754
20
-92.067
11
117.729
21
-92.0694
0
LINE
8
BLACK
6
CONTINUOUS
10
117.729
20
-92.0694
11
117.631
21
-92.0598
0
LINE
8
BLACK
6
CONTINUOUS
10
117.631
20
-92.0598
11
117.537
21
-92.0312
0
LINE
8
BLACK
6
CONTINUOUS
10
117.537
20
-92.0312
11
117.45
21
-91.9847
0
LINE
8
BLACK
6
CONTINUOUS
10
117.45
20
-91.9847
11
117.374
21
-91.9223
0
LINE
8
BLACK
6
CONTINUOUS
10
117.374
20
-91.9223
11
117.358
21
-91.9032
0
LINE
8
BLACK
6
CONTINUOUS
10
117.358
20
-91.9032
11
115.301
21
-89.8459
0
LINE
8
BLACK
6
CONTINUOUS
10
115.301
20
-89.8459
11
115.282
21
-89.8303
0
LINE
8
BLACK
6
CONTINUOUS
10
115.282
20
-89.8303
11
115.219
21
-89.7541
0
LINE
8
BLACK
6
CONTINUOUS
10
115.219
20
-89.7541
11
115.173
21
-89.6673
0
LINE
8
BLACK
6
CONTINUOUS
10
115.173
20
-89.6673
11
115.144
21
-89.573
0
LINE
8
BLACK
6
CONTINUOUS
10
115.144
20
-89.573
11
115.135
21
-89.475
0
LINE
8
BLACK
6
CONTINUOUS
10
115.135
20
-89.475
11
115.137
21
-89.4504
0
LINE
8
BLACK
6
CONTINUOUS
10
115.137
20
-89.4504
11
115.137
21
-88.434
0
LINE
8
BLACK
6
CONTINUOUS
10
115.137
20
-88.434
11
113.337
21
-88.434
0
LINE
8
BLACK
6
CONTINUOUS
10
113.337
20
-88.434
11
113.337
21
-87.334
0
LINE
8
BLACK
6
CONTINUOUS
10
113.337
20
-87.334
11
117.937
21
-87.334
0
LINE
8
BLACK
6
CONTINUOUS
10
117.937
20
-87.334
11
117.937
21
-88.434
0
LINE
8
BLACK
6
CONTINUOUS
10
117.937
20
-88.434
11
116.137
21
-88.434
0
LINE
8
BLACK
6
CONTINUOUS
10
116.137
20
-88.434
11
116.137
21
-89.2679
0
LINE
8
BLACK
6
CONTINUOUS
10
116.137
20
-89.2679
11
117.936
21
-91.067
0
LINE
8
BLACK
6
CONTINUOUS
10
117.936
20
-91.067
11
130.603
21
-91.067
0
LINE
8
BLACK
6
CONTINUOUS
10
130.603
20
-91.067
11
131.326
21
-90.3439
0
LINE
8
BLACK
6
CONTINUOUS
10
131.326
20
-90.3439
11
131.326
21
-89.071
0
LINE
8
BLACK
6
CONTINUOUS
10
131.326
20
-89.071
11
130.226
21
-89.071
0
LINE
8
BLACK
6
CONTINUOUS
10
130.226
20
-89.071
11
130.226
21
-88.071
0
LINE
8
BLACK
6
CONTINUOUS
10
130.226
20
-88.071
11
131.326
21
-88.071
0
LINE
8
BLACK
6
CONTINUOUS
10
131.326
20
-88.071
11
131.326
21
-87.2736
0
LINE
8
BLACK
6
CONTINUOUS
10
131.326
20
-87.2736
11
131.324
21
-87.249
0
LINE
8
BLACK
6
CONTINUOUS
10
131.324
20
-87.249
11
131.333
21
-87.151
0
LINE
8
BLACK
6
CONTINUOUS
10
131.333
20
-87.151
11
131.362
21
-87.0567
0
LINE
8
BLACK
6
CONTINUOUS
10
131.362
20
-87.0567
11
131.374
21
-87.0346
0
LINE
8
BLACK
6
CONTINUOUS
10
131.374
20
-87.0346
11
131.408
21
-86.9699
0
LINE
8
BLACK
6
CONTINUOUS
10
131.408
20
-86.9699
11
131.471
21
-86.8937
0
LINE
8
BLACK
6
CONTINUOUS
10
131.471
20
-86.8937
11
131.49
21
-86.8781
0
LINE
8
BLACK
6
CONTINUOUS
10
131.49
20
-86.8781
11
134.376
21
-83.9918
0
LINE
8
BLACK
6
CONTINUOUS
10
134.376
20
-83.9918
11
134.392
21
-83.9727
0
LINE
8
BLACK
6
CONTINUOUS
10
134.392
20
-83.9727
11
134.468
21
-83.9103
0
LINE
8
BLACK
6
CONTINUOUS
10
134.468
20
-83.9103
11
134.555
21
-83.8638
0
LINE
8
BLACK
6
CONTINUOUS
10
134.555
20
-83.8638
11
134.649
21
-83.8352
0
LINE
8
BLACK
6
CONTINUOUS
10
134.649
20
-83.8352
11
134.722
21
-83.828
0
LINE
8
BLACK
6
CONTINUOUS
10
134.722
20
-83.828
11
134.747
21
-83.8256
0
LINE
8
BLACK
6
CONTINUOUS
10
134.747
20
-83.8256
11
134.772
21
-83.828
0
LINE
8
BLACK
6
CONTINUOUS
10
134.772
20
-83.828
11
136.31
21
-83.828
0
LINE
8
BLACK
6
CONTINUOUS
10
136.31
20
-83.828
11
136.31
21
-83.478
0
LINE
8
BLACK
6
CONTINUOUS
10
136.31
20
-83.478
11
138.01
21
-83.478
0
LINE
8
BLACK
6
CONTINUOUS
10
138.01
20
-83.478
11
138.01
21
-85.178
0
LINE
8
BLACK
6
CONTINUOUS
10
112.393
20
-83.3317
11
112.306
21
-83.2852
0
LINE
8
BLACK
6
CONTINUOUS
10
112.306
20
-83.2852
11
112.249
21
-83.2384
0
LINE
8
BLACK
6
CONTINUOUS
10
112.249
20
-83.2384
11
112.249
21
-83.2384
0
LINE
8
BLACK
6
CONTINUOUS
10
112.249
20
-83.2384
11
112.23
21
-83.2228
0
LINE
8
BLACK
6
CONTINUOUS
10
112.23
20
-83.2228
11
112.215
21
-83.2037
0
LINE
8
BLACK
6
CONTINUOUS
10
112.215
20
-83.2037
11
112.162
21
-83.1509
0
LINE
8
BLACK
6
CONTINUOUS
10
112.162
20
-83.1509
11
112.141
21
-83.1489
0
LINE
8
BLACK
6
CONTINUOUS
10
112.141
20
-83.1489
11
112.075
21
-83.1289
0
LINE
8
BLACK
6
CONTINUOUS
10
112.075
20
-83.1289
11
112.029
21
-83.104
0
LINE
8
BLACK
6
CONTINUOUS
10
112.029
20
-83.104
11
112.01
21
-83.104
0
LINE
8
BLACK
6
CONTINUOUS
10
112.01
20
-83.104
11
112.01
21
-83.0926
0
LINE
8
BLACK
6
CONTINUOUS
10
112.01
20
-83.0926
11
111.961
21
-83.0527
0
LINE
8
BLACK
6
CONTINUOUS
10
111.961
20
-83.0527
11
111.918
21
-82.9994
0
LINE
8
BLACK
6
CONTINUOUS
10
111.918
20
-82.9994
11
111.885
21
-82.9386
0
LINE
8
BLACK
6
CONTINUOUS
10
111.885
20
-82.9386
11
111.865
21
-82.8726
0
LINE
8
BLACK
6
CONTINUOUS
10
111.865
20
-82.8726
11
111.858
21
-82.804
0
LINE
8
BLACK
6
CONTINUOUS
10
111.858
20
-82.804
11
111.865
21
-82.7354
0
LINE
8
BLACK
6
CONTINUOUS
10
111.865
20
-82.7354
11
111.885
21
-82.6694
0
LINE
8
BLACK
6
CONTINUOUS
10
111.885
20
-82.6694
11
111.918
21
-82.6086
0
LINE
8
BLACK
6
CONTINUOUS
10
111.918
20
-82.6086
11
111.961
21
-82.5553
0
LINE
8
BLACK
6
CONTINUOUS
10
111.961
20
-82.5553
11
112.01
21
-82.5154
0
LINE
8
BLACK
6
CONTINUOUS
10
112.01
20
-82.5154
11
112.01
21
-82.504
0
LINE
8
BLACK
6
CONTINUOUS
10
112.01
20
-82.504
11
112.029
21
-82.504
0
LINE
8
BLACK
6
CONTINUOUS
10
112.029
20
-82.504
11
112.075
21
-82.4791
0
LINE
8
BLACK
6
CONTINUOUS
10
112.075
20
-82.4791
11
112.141
21
-82.4591
0
LINE
8
BLACK
6
CONTINUOUS
10
112.141
20
-82.4591
11
112.16
21
-82.4573
0
LINE
8
BLACK
6
CONTINUOUS
10
112.16
20
-82.4573
11
112.167
21
-82.4487
0
LINE
8
BLACK
6
CONTINUOUS
10
112.167
20
-82.4487
11
112.243
21
-82.3863
0
LINE
8
BLACK
6
CONTINUOUS
10
112.243
20
-82.3863
11
112.33
21
-82.3398
0
LINE
8
BLACK
6
CONTINUOUS
10
112.33
20
-82.3398
11
112.424
21
-82.3112
0
LINE
8
BLACK
6
CONTINUOUS
10
112.424
20
-82.3112
11
112.522
21
-82.3016
0
LINE
8
BLACK
6
CONTINUOUS
10
112.522
20
-82.3016
11
112.585
21
-82.3078
0
LINE
8
BLACK
6
CONTINUOUS
10
112.585
20
-82.3078
11
112.624
21
-82.304
0
LINE
8
BLACK
6
CONTINUOUS
10
112.624
20
-82.304
11
112.649
21
-82.3016
0
LINE
8
BLACK
6
CONTINUOUS
10
112.649
20
-82.3016
11
112.674
21
-82.304
0
LINE
8
BLACK
6
CONTINUOUS
10
112.674
20
-82.304
11
113.337
21
-82.304
0
LINE
8
BLACK
6
CONTINUOUS
10
113.337
20
-82.304
11
113.337
21
-82.254
0
LINE
8
BLACK
6
CONTINUOUS
10
113.337
20
-82.254
11
117.937
21
-82.254
0
LINE
8
BLACK
6
CONTINUOUS
10
117.937
20
-82.254
11
117.937
21
-83.354
0
LINE
8
BLACK
6
CONTINUOUS
10
117.937
20
-83.354
11
114.076
21
-83.354
0
LINE
8
BLACK
6
CONTINUOUS
10
114.076
20
-83.354
11
111.752
21
-85.6781
0
LINE
8
BLACK
6
CONTINUOUS
10
111.752
20
-85.6781
11
111.752
21
-87.3984
0
LINE
8
BLACK
6
CONTINUOUS
10
111.752
20
-87.3984
11
111.81
21
-87.4295
0
LINE
8
BLACK
6
CONTINUOUS
10
111.81
20
-87.4295
11
111.924
21
-87.5232
0
LINE
8
BLACK
6
CONTINUOUS
10
111.924
20
-87.5232
11
114.28
21
-89.8786
0
LINE
8
BLACK
6
CONTINUOUS
10
114.28
20
-89.8786
11
114.373
21
-89.9927
0
LINE
8
BLACK
6
CONTINUOUS
10
114.373
20
-89.9927
11
114.466
21
-90.1665
0
LINE
8
BLACK
6
CONTINUOUS
10
114.466
20
-90.1665
11
114.524
21
-90.355
0
LINE
8
BLACK
6
CONTINUOUS
10
114.524
20
-90.355
11
114.543
21
-90.551
0
LINE
8
BLACK
6
CONTINUOUS
10
114.543
20
-90.551
11
114.524
21
-90.747
0
LINE
8
BLACK
6
CONTINUOUS
10
114.524
20
-90.747
11
114.466
21
-90.9355
0
LINE
8
BLACK
6
CONTINUOUS
10
114.466
20
-90.9355
11
114.373
21
-91.1093
0
LINE
8
BLACK
6
CONTINUOUS
10
114.373
20
-91.1093
11
114.249
21
-91.2615
0
LINE
8
BLACK
6
CONTINUOUS
10
114.249
20
-91.2615
11
114.096
21
-91.3865
0
LINE
8
BLACK
6
CONTINUOUS
10
114.096
20
-91.3865
11
113.923
21
-91.4793
0
LINE
8
BLACK
6
CONTINUOUS
10
113.923
20
-91.4793
11
113.734
21
-91.5365
0
LINE
8
BLACK
6
CONTINUOUS
10
113.734
20
-91.5365
11
113.538
21
-91.5558
0
LINE
8
BLACK
6
CONTINUOUS
10
113.538
20
-91.5558
11
113.342
21
-91.5365
0
LINE
8
BLACK
6
CONTINUOUS
10
113.342
20
-91.5365
11
113.153
21
-91.4793
0
LINE
8
BLACK
6
CONTINUOUS
10
113.153
20
-91.4793
11
112.98
21
-91.3865
0
LINE
8
BLACK
6
CONTINUOUS
10
112.98
20
-91.3865
11
112.866
21
-91.2928
0
LINE
8
BLACK
6
CONTINUOUS
10
112.866
20
-91.2928
11
110.51
21
-88.9374
0
LINE
8
BLACK
6
CONTINUOUS
10
110.51
20
-88.9374
11
110.417
21
-88.8233
0
LINE
8
BLACK
6
CONTINUOUS
10
110.417
20
-88.8233
11
110.324
21
-88.6495
0
LINE
8
BLACK
6
CONTINUOUS
10
110.324
20
-88.6495
11
110.266
21
-88.461
0
LINE
8
BLACK
6
CONTINUOUS
10
110.266
20
-88.461
11
110.247
21
-88.265
0
LINE
8
BLACK
6
CONTINUOUS
10
110.247
20
-88.265
11
110.266
21
-88.069
0
LINE
8
BLACK
6
CONTINUOUS
10
110.266
20
-88.069
11
110.324
21
-87.8805
0
LINE
8
BLACK
6
CONTINUOUS
10
110.324
20
-87.8805
11
110.417
21
-87.7067
0
LINE
8
BLACK
6
CONTINUOUS
10
110.417
20
-87.7067
11
110.541
21
-87.5545
0
LINE
8
BLACK
6
CONTINUOUS
10
110.541
20
-87.5545
11
110.694
21
-87.4295
0
LINE
8
BLACK
6
CONTINUOUS
10
110.694
20
-87.4295
11
110.752
21
-87.3984
0
LINE
8
BLACK
6
CONTINUOUS
10
110.752
20
-87.3984
11
110.752
21
-85.4956
0
LINE
8
BLACK
6
CONTINUOUS
10
110.752
20
-85.4956
11
110.75
21
-85.471
0
LINE
8
BLACK
6
CONTINUOUS
10
110.75
20
-85.471
11
110.759
21
-85.373
0
LINE
8
BLACK
6
CONTINUOUS
10
110.759
20
-85.373
11
110.768
21
-85.344
0
LINE
8
BLACK
6
CONTINUOUS
10
110.768
20
-85.344
11
110.788
21
-85.2787
0
LINE
8
BLACK
6
CONTINUOUS
10
110.788
20
-85.2787
11
110.834
21
-85.1919
0
LINE
8
BLACK
6
CONTINUOUS
10
110.834
20
-85.1919
11
110.897
21
-85.1157
0
LINE
8
BLACK
6
CONTINUOUS
10
110.897
20
-85.1157
11
110.916
21
-85.1001
0
LINE
8
BLACK
6
CONTINUOUS
10
110.916
20
-85.1001
11
112.653
21
-83.3633
0
LINE
8
BLACK
6
CONTINUOUS
10
112.653
20
-83.3633
11
112.585
21
-83.3699
0
LINE
8
BLACK
6
CONTINUOUS
10
112.585
20
-83.3699
11
112.487
21
-83.3603
0
LINE
8
BLACK
6
CONTINUOUS
10
112.487
20
-83.3603
11
112.393
21
-83.3317
0
LINE
8
BLACK
6
CONTINUOUS
10
120.087
20
-90.744
11
120.087
21
-85.844
0
LINE
8
BLACK
6
CONTINUOUS
10
120.087
20
-85.844
11
117.937
21
-85.844
0
LINE
8
BLACK
6
CONTINUOUS
10
117.937
20
-85.844
11
117.937
21
-85.894
0
LINE
8
BLACK
6
CONTINUOUS
10
117.937
20
-85.894
11
113.337
21
-85.894
0
LINE
8
BLACK
6
CONTINUOUS
10
113.337
20
-85.894
11
113.337
21
-84.794
0
LINE
8
BLACK
6
CONTINUOUS
10
113.337
20
-84.794
11
117.937
21
-84.794
0
LINE
8
BLACK
6
CONTINUOUS
10
117.937
20
-84.794
11
117.937
21
-84.844
0
LINE
8
BLACK
6
CONTINUOUS
10
117.937
20
-84.844
11
120.087
21
-84.844
0
LINE
8
BLACK
6
CONTINUOUS
10
120.087
20
-84.844
11
120.087
21
-79.944
0
LINE
8
BLACK
6
CONTINUOUS
10
120.087
20
-79.944
11
129.487
21
-79.944
0
LINE
8
BLACK
6
CONTINUOUS
10
129.487
20
-79.944
11
129.487
21
-81.371
0
LINE
8
BLACK
6
CONTINUOUS
10
129.487
20
-81.371
11
131.875
21
-81.371
0
LINE
8
BLACK
6
CONTINUOUS
10
131.875
20
-81.371
11
132.022
21
-81.3855
0
LINE
8
BLACK
6
CONTINUOUS
10
132.022
20
-81.3855
11
132.211
21
-81.4427
0
LINE
8
BLACK
6
CONTINUOUS
10
132.211
20
-81.4427
11
132.384
21
-81.5355
0
LINE
8
BLACK
6
CONTINUOUS
10
132.384
20
-81.5355
11
132.537
21
-81.6605
0
LINE
8
BLACK
6
CONTINUOUS
10
132.537
20
-81.6605
11
132.661
21
-81.8127
0
LINE
8
BLACK
6
CONTINUOUS
10
132.661
20
-81.8127
11
132.693
21
-81.871
0
LINE
8
BLACK
6
CONTINUOUS
10
132.693
20
-81.871
11
133.426
21
-81.871
0
LINE
8
BLACK
6
CONTINUOUS
10
133.426
20
-81.871
11
133.426
21
-82.871
0
LINE
8
BLACK
6
CONTINUOUS
10
133.426
20
-82.871
11
132.693
21
-82.871
0
LINE
8
BLACK
6
CONTINUOUS
10
132.693
20
-82.871
11
132.661
21
-82.9293
0
LINE
8
BLACK
6
CONTINUOUS
10
132.661
20
-82.9293
11
132.537
21
-83.0815
0
LINE
8
BLACK
6
CONTINUOUS
10
132.537
20
-83.0815
11
132.384
21
-83.2065
0
LINE
8
BLACK
6
CONTINUOUS
10
132.384
20
-83.2065
11
132.211
21
-83.2993
0
LINE
8
BLACK
6
CONTINUOUS
10
132.211
20
-83.2993
11
132.022
21
-83.3565
0
LINE
8
BLACK
6
CONTINUOUS
10
132.022
20
-83.3565
11
131.875
21
-83.371
0
LINE
8
BLACK
6
CONTINUOUS
10
131.875
20
-83.371
11
129.487
21
-83.371
0
LINE
8
BLACK
6
CONTINUOUS
10
129.487
20
-83.371
11
129.487
21
-90.744
0
LINE
8
BLACK
6
CONTINUOUS
10
129.487
20
-90.744
11
120.087
21
-90.744
0
LINE
8
BLACK
6
CONTINUOUS
10
94.1466
20
-86.5383
11
94.3069
21
-86.5869
0
LINE
8
BLACK
6
CONTINUOUS
10
94.3069
20
-86.5869
11
94.4545
21
-86.6658
0
LINE
8
BLACK
6
CONTINUOUS
10
94.4545
20
-86.6658
11
94.5839
21
-86.7721
0
LINE
8
BLACK
6
CONTINUOUS
10
94.5839
20
-86.7721
11
94.6902
21
-86.9015
0
LINE
8
BLACK
6
CONTINUOUS
10
94.6902
20
-86.9015
11
94.7691
21
-87.0491
0
LINE
8
BLACK
6
CONTINUOUS
10
94.7691
20
-87.0491
11
94.8177
21
-87.2094
0
LINE
8
BLACK
6
CONTINUOUS
10
94.8177
20
-87.2094
11
94.8341
21
-87.376
0
LINE
8
BLACK
6
CONTINUOUS
10
94.8341
20
-87.376
11
94.8177
21
-87.5426
0
LINE
8
BLACK
6
CONTINUOUS
10
94.8177
20
-87.5426
11
94.7691
21
-87.7029
0
LINE
8
BLACK
6
CONTINUOUS
10
94.7691
20
-87.7029
11
94.6902
21
-87.8505
0
LINE
8
BLACK
6
CONTINUOUS
10
94.6902
20
-87.8505
11
94.5839
21
-87.9799
0
LINE
8
BLACK
6
CONTINUOUS
10
94.5839
20
-87.9799
11
94.4545
21
-88.0862
0
LINE
8
BLACK
6
CONTINUOUS
10
94.4545
20
-88.0862
11
94.3069
21
-88.1651
0
LINE
8
BLACK
6
CONTINUOUS
10
94.3069
20
-88.1651
11
94.1466
21
-88.2137
0
LINE
8
BLACK
6
CONTINUOUS
10
94.1466
20
-88.2137
11
94.0217
21
-88.226
0
LINE
8
BLACK
6
CONTINUOUS
10
94.0217
20
-88.226
11
93.9383
21
-88.226
0
LINE
8
BLACK
6
CONTINUOUS
10
93.9383
20
-88.226
11
93.8134
21
-88.2137
0
LINE
8
BLACK
6
CONTINUOUS
10
93.8134
20
-88.2137
11
93.6531
21
-88.1651
0
LINE
8
BLACK
6
CONTINUOUS
10
93.6531
20
-88.1651
11
93.5055
21
-88.0862
0
LINE
8
BLACK
6
CONTINUOUS
10
93.5055
20
-88.0862
11
93.3761
21
-87.9799
0
LINE
8
BLACK
6
CONTINUOUS
10
93.3761
20
-87.9799
11
93.2698
21
-87.8505
0
LINE
8
BLACK
6
CONTINUOUS
10
93.2698
20
-87.8505
11
93.1909
21
-87.7029
0
LINE
8
BLACK
6
CONTINUOUS
10
93.1909
20
-87.7029
11
93.1423
21
-87.5426
0
LINE
8
BLACK
6
CONTINUOUS
10
93.1423
20
-87.5426
11
93.1259
21
-87.376
0
LINE
8
BLACK
6
CONTINUOUS
10
93.1259
20
-87.376
11
93.1423
21
-87.2094
0
LINE
8
BLACK
6
CONTINUOUS
10
93.1423
20
-87.2094
11
93.1909
21
-87.0491
0
LINE
8
BLACK
6
CONTINUOUS
10
93.1909
20
-87.0491
11
93.2698
21
-86.9015
0
LINE
8
BLACK
6
CONTINUOUS
10
93.2698
20
-86.9015
11
93.3761
21
-86.7721
0
LINE
8
BLACK
6
CONTINUOUS
10
93.3761
20
-86.7721
11
93.5055
21
-86.6658
0
LINE
8
BLACK
6
CONTINUOUS
10
93.5055
20
-86.6658
11
93.6531
21
-86.5869
0
LINE
8
BLACK
6
CONTINUOUS
10
93.6531
20
-86.5869
11
93.8134
21
-86.5383
0
LINE
8
BLACK
6
CONTINUOUS
10
93.8134
20
-86.5383
11
93.9383
21
-86.526
0
LINE
8
BLACK
6
CONTINUOUS
10
93.9383
20
-86.526
11
94.0217
21
-86.526
0
LINE
8
BLACK
6
CONTINUOUS
10
94.0217
20
-86.526
11
94.1466
21
-86.5383
0
LINE
8
BLACK
6
CONTINUOUS
10
94.83
20
-85.686
11
93.13
21
-85.686
0
LINE
8
BLACK
6
CONTINUOUS
10
93.13
20
-85.686
11
93.13
21
-83.986
0
LINE
8
BLACK
6
CONTINUOUS
10
93.13
20
-83.986
11
94.83
21
-83.986
0
LINE
8
BLACK
6
CONTINUOUS
10
94.83
20
-83.986
11
94.83
21
-85.686
0
LINE
8
BLACK
6
CONTINUOUS
10
106.514
20
-82.638
11
104.814
21
-82.638
0
LINE
8
BLACK
6
CONTINUOUS
10
104.814
20
-82.638
11
104.814
21
-80.938
0
LINE
8
BLACK
6
CONTINUOUS
10
104.814
20
-80.938
11
106.514
21
-80.938
0
LINE
8
BLACK
6
CONTINUOUS
10
106.514
20
-80.938
11
106.514
21
-82.638
0
CIRCLE
8
BLACK
10
93.98
20
-84.836
40
0.5
0
CIRCLE
8
BLACK
10
93.98
20
-87.376
40
0.5
0
CIRCLE
8
BLACK
10
93.98
20
-94.996
40
0.5
0
CIRCLE
8
BLACK
10
93.98
20
-97.536
40
0.5
0
CIRCLE
8
BLACK
10
105.664
20
-81.788
40
0.5
0
CIRCLE
8
BLACK
10
103.124
20
-81.788
40
0.5
0
CIRCLE
8
BLACK
10
93.98
20
-105.156
40
0.5
0
CIRCLE
8
BLACK
10
93.98
20
-107.696
40
0.5
0
CIRCLE
8
BLACK
10
137.16
20
-84.328
40
0.5
0
CIRCLE
8
BLACK
10
137.16
20
-86.868
40
0.5
0
CIRCLE
8
BLACK
10
137.16
20
-96.52
40
0.5
0
CIRCLE
8
BLACK
10
137.16
20
-99.06
40
0.5
0
CIRCLE
8
BLACK
10
137.16
20
-108.712
40
0.5
0
CIRCLE
8
BLACK
10
137.16
20
-111.252
40
0.5
0
CIRCLE
8
BLACK
10
113.538
20
-90.551
40
0.25
0
CIRCLE
8
BLACK
10
113.665
20
-103.505
40
0.25
0
CIRCLE
8
BLACK
10
113.411
20
-115.189
40
0.25
  0
ENDSEC
  0
EOF
